<svg id="Lager_1" data-name="Lager 1" xmlns="http://www.w3.org/2000/svg" viewBox="0 0 113.56 151.37"><defs><style>.cls-1{fill:#f7cd00;fill-rule:evenodd;}.cls-2{fill:#dadada;}.cls-3{fill:#368dbc;}</style></defs><title>NBS_R_2</title><path class="cls-1" d="M96.72,55.45a3.48,3.48,0,0,1,1.24.28c.3,0,.57.32.89.32a7.32,7.32,0,0,1,.77.44c.15,0,.12,0,.19.09s1.1.58,1.1.82c0,.05.09.05.15.05s0,.15,0,.16c.26,0,0,.1.19.17.18-.18.1.12.16.26s.14,0,.18.09a2.4,2.4,0,0,0,.43,1c0,.23.14.38,0,.52a3,3,0,0,1-.17,1.29,7.22,7.22,0,0,1-.41.82c-.08.15-.26.29-.31.47a.92.92,0,0,1-.38.64s0,0,0,.06a1.68,1.68,0,0,1-.28.7,3.89,3.89,0,0,1-.54,1.19c-.06,0-.14.34-.24.42s.05.33-.23.35c-.19.26-.13.55-.35.77a1.69,1.69,0,0,1-.37.64c0,.27-.13.13-.18.35s-.13.41-.27.41-.47.59-.57.68-.3.34-.38.46c-.26.12-.48.55-.73.79v-4.4a2.11,2.11,0,0,0,.34-.46c.39-.26.54-1,.91-1.15a2.18,2.18,0,0,1,.27-.44,3,3,0,0,0,.53-1.32c.18-.18.09-.11.09-.25.25-.19.13-.61.42-.83,0-.05-.08-.06-.08-.12a1.28,1.28,0,0,0,.15-1.21c-.15,0-.25-.4-.25-.49s-.3-.3-.38-.46-.11-.18-.39-.18c-.11-.23-.23-.27-.48-.33-.21-.21-.3-.15-.54-.27s-.42-.06-.6.09Zm-10.94-9h.1s.49-.32.5-.33c.24,0,.28-.08.43-.08.09.18.41-.16.41.05.43,0,.84.41,1.11.68.3,0,.55.66.59.84s0,1.11,0,1.45c-.2.2-.1.69-.33.84,0,.06.06.05.06.13a3,3,0,0,0-.26,1.11c-.06,0-.2,1.15.09,1.15a2.12,2.12,0,0,1,.1,1.33c-.11.23-.1.69-.31.79,0,0,0,.46.14.46.1.15.09.39.31.39,0,.16.35.43.52.43.17.35.38.34.61.58.06.28.58.25.72.53.2.1.67.31.76.5.16,0,.33.43.5.43s.1.31.19.43.1.68,0,.83c-.29,0-.06.45-.35.31-.19.26-1.27.12-1.44-.05a5.4,5.4,0,0,0-.89-.24c-.13,0-.58-.15-.68-.05a10,10,0,0,0-.15,2.62,11.31,11.31,0,0,0,0,2.07c0,.13-.08,1.3.05,1.36s.56,0,.77,0a3.27,3.27,0,0,0,1.44-.3,1.67,1.67,0,0,0,1.28-.6c.26,0,.66-.89.89-1s0-.7.33-.76c0-.4.19-.73.19-1.16a5.11,5.11,0,0,0,.06-.85c0-.45.08-.91.11-1.36.11-.17,0-.56.17-.85a10.79,10.79,0,0,1,.1-1.07c.09-.15.11-.6.37-.6,0,0,.06-.1.09-.13,0-.23.35-.19.42-.42a2.91,2.91,0,0,1,.63-.19c.17,0,.43-.25.57,0,.06,0,.48-.25.55-.11h.12v2.41a.3.3,0,0,0-.11.18,2.2,2.2,0,0,0-.15.58c.18.12,0,.28,0,.43a5,5,0,0,1,0,2.43c0,.08-.15.13,0,.19-.13.13-.42.83-.55.83s-.19.47-.38.53-.61.62-.61.72a1.91,1.91,0,0,1-.34.83c0,.2-.25,1-.41,1.1a1.39,1.39,0,0,0,0,.47c-.18.15-.17,1.29.13,1.32l.09.09h.45s0-.18.1-.18.35-.34.4-.39a3.34,3.34,0,0,1,.72-.83,1.18,1.18,0,0,1,.4-.54,2.1,2.1,0,0,0,.3-.31v4.4a.47.47,0,0,1-.3.16c-.14.11-.56.78-.69.78a4.59,4.59,0,0,0-.83,1.1l-.14.15a.73.73,0,0,0-.29.33l-.74.61s-.08-.1-.11,0c0,.25-.28.39-.48.39s-.24.09-.37.19-.37.25-.45.25c-.08.16-.29.08-.41.19s-.63.14-.7.28-.24.06-.37.19-.4.06-.5,0-.55.15-.78.08c-.62,0-1.27.17-1.88.17-.19.15-.77-.16-1,.08-.09,0-.11-.13-.16,0s-.24-.19-.44,0c-.1,0-.09-.14-.17,0s-.09,0-.12-.05V71.33a.85.85,0,0,0,.52-.1c.06,0,.21.06.28.06.18-.23.42.09.56-.05s.15.05.21.05.52,0,.56,0,.16,0,.19,0,.37,0,.47.11.4-.13.55,0c.19-.15.59-.05.59-.25h.17A1.81,1.81,0,0,0,91,70.73a1.55,1.55,0,0,1,.31-.12c0-.08.4-.68.2-.68s-.18-1-.26-1,0-.35-.09-.39,0-.78-.13-.78-.29-.09-.3-.09c-.17.26-.37-.21-.47.11-.06,0-.33,0-.33.12a5.92,5.92,0,0,1-2.57,0,9.65,9.65,0,0,1-1.15,0c0-.11-.24,0-.43.05V65a2.55,2.55,0,0,0,.56-.26,15.31,15.31,0,0,0,0-1.72c0-.52,0-1.08,0-1.64,0,0,.12-.05.12-.11s0-.71,0-.91a1.51,1.51,0,0,0,.09-.6c.28-.28-.17-.83-.17-1.13-.14-.14-.42,0-.45.16s-.15.18-.2.27Zm-.92,28.23s0,0,0,0c0-.17-1-.12-1.14-.31a3.18,3.18,0,0,1-.52-.1c-.19-.06-.68-.21-.79-.1s-.47-.14-.64,0-1.07-.1-1.13,0-.08,0-.11-.08C79.66,74,78.84,74,78,74c-.08-.16-.48.09-.56-.06-.18,0-.44.06-.52,0a.12.12,0,0,0-.11.08c-.38,0-.73.09-1.11.09-.13.1-.26,0-.47.11s-.21-.16-.39.06c-.16,0-.3-.13-.42,0s-.06-.09-.13-.05a.14.14,0,0,1-.15.08V71.48a.69.69,0,0,1,.52.17,3.76,3.76,0,0,1,1.45-.13c.15-.15.58.08.68-.12h0c0,.12.15,0,.23.06s.1-.12.11-.11.61-.06.81-.06a1.75,1.75,0,0,1,.3-.08c.11.05.18,0,.38,0a.06.06,0,0,0,.09,0c.12-.25.55.12.63-.05.05,0,.08.09.14.05.14-.28.83.1,1-.06.93,0,1.69-.09,2.74-.09,0,.2.77-.05.91.16a3.51,3.51,0,0,1,.37-.08c0,.18.53-.08.57.08.06,0,.4,0,.7,0v3.25s-.05,0-.15.05ZM74.16,46.91a.94.94,0,0,1,.66-.29c0-.19.28.13.29.13.55,0,.71.34,1.15.53.1.31.43.4.44.71.19.19.13.57.28.72a2.81,2.81,0,0,1,0,1.11c-.18.09.12.1-.06.21a5.07,5.07,0,0,1-.26.6c0,.12,0,.14-.14.15-.18.18-.11.56-.4.68s-.24.43-.25.64,0,.45-.15.66c0,.09.12.13.05.27a2,2,0,0,0,.3.64.9.9,0,0,1,.49.39c0,.11.1,0,.11,0a6.58,6.58,0,0,1,.54.88.65.65,0,0,0,.27.27c0,.23.71,1.06.92,1.06,0,0,.18.21.21.25a.46.46,0,0,1,.37.29c.14.14.17-.08.25.16a3.81,3.81,0,0,1,.5.41c.38,0,.63.61,1,.77.17,0,.15.05.15.24.17.09.71.7.59.82v0c.16.16.49.79.34,1-.13.39-.16.14-.29.27a1.84,1.84,0,0,1-.45.19,1.91,1.91,0,0,1-.86.08c-.2-.2-1.42-.62-1.42-1-.28,0-.29-.32-.62-.32,0,0-.89-.74-.92-.79s-.37-.18-.48.05c0,.81,0,1.55.09,2.34a6,6,0,0,1,0,1.63,2,2,0,0,0,.2.95c.1.05.23,1,.4.93,0-.15.6.1.76.1.11-.17.9-.1,1.16-.25.12,0,.31-.18.4,0a1,1,0,0,0,.86-.08h.06c.14.29,1-.13,1.21.25a.45.45,0,0,1,.29.13c.32,0,.82.11.82-.34a1,1,0,0,1,.11-.1c0-.78,0-1.59,0-2.41a4.41,4.41,0,0,1,.17-1.76c0-.25.18-.56.1-.69s.12-.13,0-.25.18-1.1.08-1.2c.23-.34,0-1.24.41-1.44A3.06,3.06,0,0,1,84,55.7c0-.14.27-.46.27-.58,0-.38.35-.53.35-.86.09-.18.09-.4.3-.5,0-.15.16-.66.29-.7a2.46,2.46,0,0,0-.09-1.25c-.17-.13,0-.49-.18-.64,0,0-.06-.06-.09-.09,0-.18-.16-.27-.15-.3s.05-.14,0-.21c0-.34-.43-1.38-.18-1.54,0-.38,0-.54.14-.79,0-.39.23-.44.3-.77.09,0,.16-.26.18-.35.27-.14.38-.59.61-.69V59a.46.46,0,0,0,0,.18.79.79,0,0,0-.25.6,1.38,1.38,0,0,0-.18.17,1.24,1.24,0,0,1-.16.66A8,8,0,0,1,85,62.52c0,.09.18.14,0,.26,0,.05.08.06.08.12s-.09.27-.08.41c-.15.15,0,.16,0,.28-.16.08,0,1.12,0,1.3.13,0,.19.13.26.26.11-.05.35,0,.43-.16l.17,0v3c-.13,0-.23,0-.23,0a3.34,3.34,0,0,1-.91.13s0,0-.06,0c-.1.15-.87.11-1,.11a6.06,6.06,0,0,1-1.16,0c-.62,0-1.11-.21-1.64-.21-.08.16-.1.13-.28.13,0,0,0,0-.05,0-.08.16-1.21.13-1.35.13s-.17-.06-.27,0c-.62,0-1.2.17-1.79.17-.14-.14-.06,0-.19,0-.11-.23-.34,0-.44,0s-.16,0-.3-.08h-.28c-.13.27-.32-.15-.49.09-.18,0-.15-.1-.42-.1s-.28,0-.52,0a.16.16,0,0,1-.18,0V65.14c.13-.09.12-.29.24-.41s0-.09,0-.15c.25-.18.13-.35.24-.58a6.65,6.65,0,0,0,.28-1.05A11.06,11.06,0,0,0,75,61.59c-.09-.17.06-.23-.08-.43a5.77,5.77,0,0,0-.21-1.38c.08-.15-.09-.12-.09-.24,0-.33-.39-.2-.39-.43a.06.06,0,0,0-.05,0Zm0,27.32c-.12,0-.26-.05-.31.06s-.13-.17-.26,0c-.14,0-.12-.14-.32,0-.12,0-.15-.17-.28,0-.1,0-.17-.15-.25,0-.29.14-.39-.11-.57-.05s-.38,0-.53.06-1-.28-1.05-.09l-.28-.08c-.48,0-.58-.09-1-.09-.2-.1-.6,0-.76-.16-.25.16-.4-.2-.58,0a1.79,1.79,0,0,1-.34-.06c-.4,0-.69-.09-1.06-.09-.11.17-.29,0-.43,0-.11.16-.24,0-.33,0s-.16.09-.25,0c-.2.14-.43-.06-.49.08s-.1-.15-.16,0-.26-.06-.39,0,0-.12-.09-.12-.3,0-.4,0a3.5,3.5,0,0,1-1.4-.16c-.09.17-.52-.29-.67-.1h-.62c-.08-.12-.18,0-.18,0s-.5.12-.62-.12c-.11,0-.38.14-.48.14a.22.22,0,0,0,0-.06,2.39,2.39,0,0,1-1.22-.09.89.89,0,0,0-.42.08c-.26,0,0-.11-.26,0a2,2,0,0,0-.31,0V70.5a2.15,2.15,0,0,0,.31,0c.18-.09.21,0,.34-.09h.43c.17.17.18,0,.37.1s.28.06.28.24l.31,0c.18.27.84,0,1,.23.05,0,.08-.06.13-.06.15.15.31-.06.38.06a8.47,8.47,0,0,0,1.14.05h2.33c.19-.13.68.2.81.08s.58.05.74.05.08,0,.25-.05.1.05.17.05a4.1,4.1,0,0,1,1.74,0c0,.13.19-.17.19.13,0,0,.16-.14.16,0,1,0,1.91-.05,2.89-.05.11-.11.19.05.19.05s1-.13,1,.11h0c.09.12.11,0,.26,0a4.66,4.66,0,0,0,.91.08v2.75ZM57.77,41c.1,0,.17,0,.2-.11s.56-.4.73-.45a5,5,0,0,0,.43-.48c-.21,0,.18-.7,0-.81,0-.08.08-.08.08-.13-.25-.12.11-.4-.09-.4,0-.39-.4-2.28.24-2.28,0-.42.14-.32.35-.54s.13-.28.48-.28c.2-.2.18,0,.4-.05s.6-.27.69-.09c.12,0,.05-.12.24,0a.35.35,0,0,1,.24.11,1.2,1.2,0,0,1,.91.32c.56.18.82.86,1,1.39,0,.25.23.41,0,.62,0,.06.1.08.06.15s.1.16-.06.28A2.19,2.19,0,0,1,63,39.58c-.08.1-.2.13-.27.27s-.23.24-.34.47c-.06.09-.43.68-.27.68a5.78,5.78,0,0,1-.2.83c-.08.12-.17.85-.05.9s-.16.19,0,.27c0,.32.16,1.24-.06,1.46,0,.06.08.08.08.21a1.86,1.86,0,0,0,.2,1.39c.19,0,.08.08.16.16.34,0,.49,1.25.49,1.43s0,.86.23.86c.12.17.29.43.52.43.06.1.31.34.29.39s.13,0,.17.12.28.38.47.38.09.3.26.3.48.56.54.54.28.47.52.47a2.09,2.09,0,0,0,.74.49c.13.13.06.15.26.21.26.26.75.41.9.71.23,0,.35.19.57.19.15.3.42.37.57.68.35,0,.34.3.56.46,0,.33.14.91-.16,1.11-.06.19-.37.2-.49.33s-1.14.11-1.35-.11c-.39,0-.6-.46-.95-.46-.13-.13-.3,0-.4-.19-.15,0-.15-.13-.25-.19a2.92,2.92,0,0,1-1.26-.68c-.1-.14-.3-.06-.39-.25-.05,0-1-.69-1-.7s-.15.29-.15.38-.08.31-.08.54c.15.11-.14.2.06.3,0,.18-.11.16,0,.28A9.45,9.45,0,0,0,63,55.46c.19.19.09.78.16,1,.06,0,0,.29.06.35,0,.46.12,1.38-.23,1.72,0,.46-.28.76-.28,1.25-.27.23,0,.59-.25.83,0,.05.06.06.06.13-.26.13.05.85-.15,1,0,.31-.21,1.33.32,1.33.09-.06.09,0,.16,0s.78.09.89-.14c.08,0,.12.1.18,0a2.07,2.07,0,0,0,.86-.18c.08,0,.14.18.21.15s.52.19.7.19.52.09.63.33a1.3,1.3,0,0,1,.47.16c.4,0,1.16.43,1.46.28.05,0,.08,0,.1.05.62,0,1.26.05,1.84.05.06,0,.39-.14.39,0a4.61,4.61,0,0,0,.64-.14c.09-.27.13.14.2-.17.45-.23,0-1.07.17-1.43A19.55,19.55,0,0,0,71.7,60c0-.17.21-.44.13-.53s.14-.29.16-.38c.19-.15.11-.88.29-1.06.24,0,0-.11.08-.16.23,0,.11-.15.18-.31s.08-.26.14-.44a2.47,2.47,0,0,0,.25-.58,1.38,1.38,0,0,0,.27-.46,2.5,2.5,0,0,0,.18-.9h0c0-.17.14-.74.05-.83s.15-.4.15-.47.08-.57.09-.59c-.15-.1,0-.28,0-.4s.15-1.69-.24-1.69c-.12,0-.35-1.16-.41-1.27s0-.18,0-.25c-.17-.13,0-.09,0-.18-.19-.15.12-.19-.05-.28,0-.27.18-.43.18-.74,0,0,.24-.62.24-.75.25-.18.28-.59.59-.74l.13-.08V59.09c-.14,0-.46.43-.31.5s-.12.56-.12.71,0,1.19-.19,1.35c0,.46-.16.85-.16,1.26.1,0,0,1.05,0,1.07s.09.05.09.17,0,.43.08.43.18.59.49.59a.21.21,0,0,0,.15,0v3.13a.7.7,0,0,0-.18,0c-.09.18-.2,0-.32,0s-.95.24-1.1,0c-.27.13-.42,0-.7,0-.15.15-.56-.19-.77.1h-.7c0-.14-.37-.09-.43-.09s-.66-.14-.79-.14c-.38,0-.63-.13-1-.13a1.94,1.94,0,0,0-1-.23c-.09.09-.35-.13-.45,0s0-.15-.19-.15-.31-.09-.52-.09c-.17-.17-.26.05-.32-.09a10.1,10.1,0,0,0-1.39-.09c-.58-.29-1.17,0-1.89,0a3.42,3.42,0,0,1-1.1,0c-.33,0-.66-.08-1-.08a3.11,3.11,0,0,0-1.27-.39c-.17,0-.74-.29-.79-.2s-.2-.08-.35-.08a.53.53,0,0,0-.14-.09V63.39a.16.16,0,0,1,.08,0c.08.12.66,0,.74-.09a.87.87,0,0,1,.27-.09c.2.1.59-.1.87-.1.09-.18.15-1.07.27-1.13s.31-.7.23-.75.09-.55.09-.82c0,0,.12-.43.12-.44s0-.33,0-.52,0-.08,0-.23,0-.1,0-.23a2.44,2.44,0,0,1-.1-.95c-.19-.19.12-1.69-.14-1.82v0A2.18,2.18,0,0,0,60,55.11c0-.05,0-.06.08-.1,0-.26-.15-.64-.15-.89.08-.05-.25-.87-.29-1a1.32,1.32,0,0,1-.42-.69,3.6,3.6,0,0,1-.46-.44c0-.28-.9-.1-1,.18Zm0,32.35a.33.33,0,0,1-.38-.11c-.2.14-.76-.05-.85.08a2,2,0,0,0-.63.11c-.12.2-.18-.12-.3.06a1.65,1.65,0,0,1-.68-.16A4.22,4.22,0,0,1,53.64,73c-.16,0-.64-.2-.68-.11a.08.08,0,0,1-.09-.08c-.24-.24-1,0-1.19-.33a3.6,3.6,0,0,0-.9-.24,5,5,0,0,0-.56-.2c-.05,0-.74,0-.74,0l-.05,0a4.64,4.64,0,0,1-1.34-.32c-.19-.19-.84-.06-.93-.35-.19-.06-.11,0-.19-.18s-.61-.68-.49-.79a1,1,0,0,1,.34-.75c0-.25.43-.43.6-.53a3.8,3.8,0,0,1,1.48-.13c.33,0,1,0,1.12-.38a.66.66,0,0,0,.1-.21,1.74,1.74,0,0,1,.21-.91,1.17,1.17,0,0,1,.17-.62c-.17-.17.2-.81-.06-1.07,0-.29-.42-.49-.54-.73a1.08,1.08,0,0,1-.25-.33c-.2-.13-.38-.75-.6-.75,0-.19-.29-.39-.42-.52s-.41-.6-.53-.78c0-.38-.42-.32-.42-.7a1.05,1.05,0,0,1-.52-.85c-.12-.12-.12.05-.17-.17-.25-.12-.19-.73-.42-.73,0-.14.13-.05,0-.19s-.1-.19-.16-.26c0-.49-.17-.89-.18-1.36a2.47,2.47,0,0,1,.09-1.2.84.84,0,0,1,.1-.43c-.16-.25.29-1.18.39-1.48a3.56,3.56,0,0,0,.55-1.17,2.12,2.12,0,0,0,.45-.81c0-.08.23-.28.23-.33-.17-.05.16-.28.06-.38s.21-.23.12-.32.06-.1.1-.16a2.63,2.63,0,0,0,0-1.2s-.05,0-.05-.06,0-.33-.08-.39-.12-.48-.29-.66-.34-.26-.52-.43c-.42,0-.71-.13-1.05.21a2.3,2.3,0,0,0-.7.39,4.33,4.33,0,0,1-1,.49c-.24.16-.57,0-.84-.1-.09-.09-.32-.21-.32-.35-.2-.27-.21-1.18.08-1.38a1.48,1.48,0,0,1,.47-.66c.25-.2.15-.34.56-.34.05-.05,0-.12.1-.16.32,0,.18-.25.47-.18s.48-.33.79-.18c.08,0,.19-.18.29,0,.13,0,.46-.31.59-.09.14,0,.67.16.68.11a2.9,2.9,0,0,1,.29.16c.35,0,.63.33,1,.44,0,.23.43.18.47.38.3,0,.42.45.59.62a.11.11,0,0,0,.09-.06c.15,0,.18.67.37.67a1.69,1.69,0,0,1,.12.25c-.16.05,0,.11,0,.17.23.11-.11.28.09.4a5.89,5.89,0,0,1,0,1.22c-.06.18,0,.9-.14,1,0,.29-.19.45-.19.74-.11.11,0,.37-.1.5-.26.15-.32,1-.42,1.27a5,5,0,0,1-.33.92,3.45,3.45,0,0,1-.26,1c0,.11.13.05,0,.19v.67c.12.15-.11.24.08.32,0,.11-.12.16.09.26,0,0-.13.16,0,.16,0,.19.1.62.27.71a3.07,3.07,0,0,0,.45,1.32c.25.12.13.54.32.63a1.76,1.76,0,0,0,.59.81s.3.4.39.4.48.37.48.38c.17.09,1,.3,1,.09s.17-.3.06-.52c.15-.15-.13-.62,0-.68s0-.06-.08-.1c0-.27.12-.34,0-.49a10.83,10.83,0,0,1,0-1.57,4.33,4.33,0,0,0,.09-1.12,2.09,2.09,0,0,0,.16-.78c-.16-.1.1-.28.1-.42S53,57,53,57a2.34,2.34,0,0,0,.25-.77c-.11-.11.08-.38.11-.55a3.84,3.84,0,0,0,.25-1.25c.17-.13.1-.19.17-.34s.11-.78.32-.89c0-.31.46-.72.46-1,.23,0,.15-.29.31-.45a3,3,0,0,1,.42-.76c.26-.26.32-.75.58-1,.15,0,.13-.1.13-.23a2.35,2.35,0,0,0,.35-.62c.23-.11.17-1.68-.18-1.68,0-.38-.6-.58-.6-1a1.06,1.06,0,0,1-.44-.43c0-.05-.13-.15-.16-.15s0-.12,0-.14-.43-.41-.48-.52a8.17,8.17,0,0,1-.68-.74c-.17-.17-.58-.62-.83-.62,0-.1.1-.09,0-.17-.27,0-.18-.11-.39-.25a3.57,3.57,0,0,1-.71-.64s-.74-.64-.77-.64-.21-.35-.38-.35-.32-.47-.2-.53.09-.83.2-.59c.13,0,.24-.16.47-.16.17-.17,1.06.12,1.16.43l.77.68a4,4,0,0,1,.81.44H54a1.89,1.89,0,0,0,1.3-.11,3.88,3.88,0,0,1,1.19-.33,1.5,1.5,0,0,1,.77-.34c0-.25.31-.25.53-.3V52.21c-.16.08-.14.24-.2.27-.34,0-.27.61-.61.61a4.51,4.51,0,0,0-.45,1.07l-.05.08c-.13.26-.16.86-.38,1,0,.09.08.05.08.13-.2.14-.14,1.13-.41,1.13a2.45,2.45,0,0,1-.26.89c0,.06.08.09.08.19-.16.16-.09.3-.17.43,0,.32-.09.38-.09.68a7.15,7.15,0,0,0-.16,2.09c.05.05,0,.19.08.28,0,.34.19.46.19.74.19.08.17.35.31.52s.35.44.35.76c.13.06.53.47.62.28,0,0,.06.08.11.08h.93l0,0v3.13a2.38,2.38,0,0,0-.72-.17c-.08-.08-.31-.39-.41-.18,0,0-.58-.14-.58-.15-.37,0-.69-.27-1.07-.27-.11-.11-.95-.26-1.07-.13-.71,0-.69,0-.84.61A5.64,5.64,0,0,0,52.68,68a1,1,0,0,0-.14.62c-.2.16-.27.59,0,.74a4.6,4.6,0,0,0,1.43.49,1.63,1.63,0,0,0,.48.17,2.83,2.83,0,0,0,1.12.33c.13.13.41-.09.55.15.14,0,.33-.2.43,0a5.93,5.93,0,0,0,.88,0,.51.51,0,0,1,.38,0Z" transform="translate(-16.42 1.1)"/><path class="cls-2" d="M34.23,45.37l-.17.24c-.83,1.06-1.73,1-2.87.07s-1.49-1.79-.66-2.85,1.78-.94,2.92,0c.73.58,1.12,1.12,1.08,1.73l.94.14-.2.85Zm-1.36-1.84c-.79-.62-1.3-.74-1.71-.21s-.18,1,.61,1.62,1.26.69,1.66.17S33.66,44.15,32.87,43.53Z" transform="translate(-16.42 1.1)"/><path class="cls-2" d="M37.29,40.65c.38-.38.41-.67,0-1l-2.07-2L35.9,37,38,39c.77.75.74,1.4-.09,2.25s-1.48.89-2.25.15l-2.07-2,.63-.65,2.07,2C36.63,41.08,36.91,41,37.29,40.65Z" transform="translate(-16.42 1.1)"/><path class="cls-2" d="M38.6,34.52l1.28-1.06,3.53,2.72-.7.58-.63-.45-1.13.93.34.69-.7.58Zm2,2,.86-.71L39.8,34.5l-.17.14Z" transform="translate(-16.42 1.1)"/><path class="cls-2" d="M45.24,34.87l-2.41-3.61.75-.5,2,2.94,1.32-.88.45.68Z" transform="translate(-16.42 1.1)"/><path class="cls-2" d="M47.16,28.55l.8-.44,2.09,3.8-.8.44Z" transform="translate(-16.42 1.1)"/><path class="cls-2" d="M50.13,27l2.8-1.25.34.77-1,.44,1.42,3.2-.82.37-1.42-3.2-1,.45Z" transform="translate(-16.42 1.1)"/><path class="cls-2" d="M58.42,28.41l-.86.27L57,26.91l-2-2,1-.31,1.22,1.26.26-1.73,1-.31-.51,2.77Z" transform="translate(-16.42 1.1)"/><path class="cls-2" d="M65,22.52l1.65-.2,1.5,4.2-.91.11L67,25.91l-1.46.17-.08.76-.91.11Zm.59,2.75,1.11-.13-.68-2-.22,0Z" transform="translate(-16.42 1.1)"/><path class="cls-2" d="M71.27,25.18l0,1.24-.91,0,.08-4.34,1.59,0a1.41,1.41,0,0,1,1.57,1.54,1.46,1.46,0,0,1-1.63,1.55ZM72,24.4c.46,0,.69-.31.7-.78s-.21-.73-.67-.74h-.67l0,1.52Z" transform="translate(-16.42 1.1)"/><path class="cls-2" d="M76.85,25.47,76.7,26.7l-.91-.11.54-4.31,1.57.2a1.41,1.41,0,0,1,1.4,1.7,1.46,1.46,0,0,1-1.78,1.37Zm.76-.7c.45.06.72-.23.77-.7a.63.63,0,0,0-.59-.8l-.66-.08L77,24.69Z" transform="translate(-16.42 1.1)"/><path class="cls-2" d="M83.05,26.41l-.65-.17L82,27.64l-.87-.22,1.06-4.21,1.62.41c1,.25,1.44.79,1.18,1.79a1.3,1.3,0,0,1-.94,1l.21,1.76-1-.24-.16-1.52Zm.61-2-.74-.19-.33,1.3.76.19a.64.64,0,0,0,.79-.51A.62.62,0,0,0,83.66,24.39Z" transform="translate(-16.42 1.1)"/><path class="cls-2" d="M87.14,26.86c.53-1.36,1.28-1.95,2.54-1.46s1.41,1.43.88,2.78-1.26,1.89-2.51,1.4S86.6,28.22,87.14,26.86Zm2.54,1c.36-.93.33-1.46-.29-1.7s-1,.12-1.37,1.05-.31,1.4.32,1.64S89.31,28.78,89.67,27.85Z" transform="translate(-16.42 1.1)"/><path class="cls-2" d="M96.92,29l-3,3.32-1.43-.77,1.13-4.32.85.45-1,3.5.2.11,2.38-2.76Z" transform="translate(-16.42 1.1)"/><path class="cls-2" d="M99.2,30.38,101.53,32l-.45.66-1.59-1.1-.58.84,1.26.87-.44.64L98.47,33l-.54.78,1.59,1.1-.45.66L96.74,34Z" transform="translate(-16.42 1.1)"/><path class="cls-2" d="M100.93,37l2.83-3.3,1.11,1c1.14,1,1,1.72.06,2.81S103.21,39,102,38Zm3.42-1.73-.43-.37L102.13,37l.43.37c.62.54,1.08.19,1.66-.49S105,35.81,104.35,35.28Z" transform="translate(-16.42 1.1)"/><path class="cls-2" d="M111.73,41.65c.49.58.66,1.28.05,1.78a1,1,0,0,1-1.1.27.9.9,0,0,1-.39,1.08c-.66.55-1.35.3-1.88-.34l-1.1-1.32,3.34-2.78Zm-2.45,1-.79.66.49.59a.52.52,0,1,0,.79-.66Zm1.35-1.13-.78.65.48.57a.49.49,0,0,0,.74,0,.47.47,0,0,0,0-.71Z" transform="translate(-16.42 1.1)"/><path class="cls-2" d="M111.81,49l-.51-.74,1.54-1,1.3-2.52.57.84-.86,1.53,1.74-.25.57.84-2.8.31Z" transform="translate(-16.42 1.1)"/><path class="cls-2" d="M22.41,106s-.15-1-.25-1.42-.33-.7-.65-.62-.37.31-.45,1.14c-.1,1.09-.21,1.48-1,1.66-.94.23-1.49-.17-1.78-1.36a10.22,10.22,0,0,1-.22-1.54l.78-.14s.14,1,.25,1.39.3.79.71.68.3-.34.37-1.07c.11-1.16.33-1.55,1.06-1.73s1.44.27,1.7,1.33a9.12,9.12,0,0,1,.21,1.53Z" transform="translate(-16.42 1.1)"/><path class="cls-2" d="M24.19,108.87l-3.28,2,0,.1,3.75-.6.41,1.08-3.21,2,0,.1,3.8-.66.38,1-4.68.68-.56-1.47,2.88-1.78-3.33.58-.56-1.47,4-2.58Z" transform="translate(-16.42 1.1)"/><path class="cls-2" d="M27.17,116.07l1.46,2.78-.75.4-1-1.89-1,.5.79,1.5-.73.38-.79-1.5-.89.47,1,1.89-.75.4-1.46-2.78Z" transform="translate(-16.42 1.1)"/><path class="cls-2" d="M26.11,123.64l3.83-2.56.9,1.35c.92,1.38.57,2.12-.69,3s-2.19,1-3.14-.4Zm4-.74-.35-.52L27.36,124l.35.52c.5.75,1.07.53,1.86,0S30.64,123.66,30.13,122.9Z" transform="translate(-16.42 1.1)"/><path class="cls-2" d="M33.56,126.18l.63.79-3.59,2.9-.63-.79Z" transform="translate(-16.42 1.1)"/><path class="cls-2" d="M37.45,131.84s-.64-.8-.93-1.11-.63-.45-.87-.22-.17.45.18,1.21c.45,1,.56,1.38,0,1.92s-1.38.59-2.22-.29a10.31,10.31,0,0,1-1-1.22l.61-.51s.6.76.91,1.08.65.53,1,.24.09-.44-.21-1.11c-.48-1.06-.49-1.51.06-2s1.39-.49,2.14.3a9.1,9.1,0,0,1,.94,1.22Z" transform="translate(-16.42 1.1)"/><path class="cls-2" d="M40.3,136.8l-1.36-1.13-1.23,1.48-.77-.64L39.9,133l.77.64L39.49,135l1.36,1.13L42,134.74l.77.64-2.95,3.55-.77-.64Z" transform="translate(-16.42 1.1)"/><path class="cls-2" d="M47.92,138.86l2.74,1.52-.41.74-1.87-1-.52.95,1.49.82-.4.72-1.49-.82-.49.88,1.87,1-.41.74-2.74-1.52Z" transform="translate(-16.42 1.1)"/><path class="cls-2" d="M54.06,146.85a13.22,13.22,0,0,1-1.36-.42c-1.35-.56-1.43-1.44-.82-2.92s1.4-2,2.64-1.49a10.16,10.16,0,0,1,1.25.69l-.33.73s-.82-.43-1.12-.55c-.64-.27-1-.1-1.47,1s-.38,1.47.35,1.77c.27.11,1.15.4,1.15.4Z" transform="translate(-16.42 1.1)"/><path class="cls-2" d="M57.31,145.65c.41-1.5,1.15-2.19,2.59-1.8s1.73,1.38,1.32,2.87-1.13,2.13-2.57,1.74S56.9,147.14,57.31,145.65Zm2.91.8c.28-1,.18-1.58-.54-1.78s-1.09.23-1.37,1.26-.16,1.52.56,1.71S59.94,147.47,60.22,146.44Z" transform="translate(-16.42 1.1)"/><path class="cls-2" d="M63.81,144.86l3.36.49-.13.88-1.17-.17-.54,3.68-1-.14.54-3.68-1.2-.17Z" transform="translate(-16.42 1.1)"/><path class="cls-2" d="M69.15,147.87c0-1.55.59-2.41,2.08-2.37s2,.92,2,2.47-.59,2.34-2.08,2.31S69.11,149.42,69.15,147.87Zm3,.07c0-1.06-.21-1.58-1-1.59s-1,.49-1,1.55.21,1.51,1,1.53S72.14,149,72.16,147.94Z" transform="translate(-16.42 1.1)"/><path class="cls-2" d="M78,149.08c.59-.07.82-.28.77-.81l-.34-3.05,1-.11.34,3.05c.12,1.13-.36,1.65-1.67,1.79s-1.89-.25-2-1.38l-.34-3.05,1-.11.34,3.05C77.14,149,77.42,149.14,78,149.08Z" transform="translate(-16.42 1.1)"/><path class="cls-2" d="M84.51,147.2l-.73.18.36,1.47-1,.24-1.11-4.47,1.79-.45c1.09-.27,1.81,0,2.07,1.06a1.37,1.37,0,0,1-.39,1.46l1.1,1.54-1.07.27-.93-1.34Zm-.44-2.2-.83.21.34,1.38.84-.21a.69.69,0,0,0,.51-.88A.67.67,0,0,0,84.08,145Z" transform="translate(-16.42 1.1)"/><path class="cls-2" d="M87.95,142.95l1-.34,1.57,4.34-1,.34Z" transform="translate(-16.42 1.1)"/><path class="cls-2" d="M94.53,141.07s-1,.35-1.34.53-.63.46-.48.76.38.3,1.21.21c1.09-.12,1.49-.09,1.82.61.42.88.13,1.49-1,2a10.26,10.26,0,0,1-1.46.52L93,145s.91-.33,1.31-.52.71-.46.53-.84-.39-.23-1.12-.15c-1.16.13-1.59,0-1.91-.69s0-1.47,1-1.94a9.09,9.09,0,0,1,1.46-.51Z" transform="translate(-16.42 1.1)"/><path class="cls-2" d="M96.38,139.13l1.36-.88,2.64,2.32-1.05-3.36,1.34-.87,2.52,3.86-.83.54-1.92-2.95-.09.06,1,3.29-.85.55-2.61-2.26-.09.06,1.92,2.95-.83.54Z" transform="translate(-16.42 1.1)"/><path class="cls-2" d="M108.17,130.89s-.79.64-1.1.94-.44.64-.21.88.46.16,1.21-.19c1-.46,1.38-.57,1.92,0s.61,1.37-.27,2.22a10.24,10.24,0,0,1-1.21,1l-.51-.6s.75-.6,1.07-.91.52-.66.23-1-.45-.09-1.11.22c-1.05.49-1.51.5-2,0s-.5-1.38.28-2.14a9,9,0,0,1,1.21-.95Z" transform="translate(-16.42 1.1)"/><path class="cls-2" d="M111,130.07c-1.2-1-1.53-1.95-.58-3.1s2-1,3.16,0,1.48,1.91.53,3.06S112.15,131.06,111,130.07Zm1.92-2.33c-.82-.67-1.37-.81-1.84-.23s-.24,1.09.58,1.76,1.31.77,1.79.19S113.69,128.41,112.87,127.74Z" transform="translate(-16.42 1.1)"/><path class="cls-2" d="M118.7,123.33a13.34,13.34,0,0,1-.67,1.25c-.81,1.22-1.68,1.13-3,.25s-1.7-1.76-1-2.87a10.12,10.12,0,0,1,.92-1.1l.65.47s-.57.73-.75,1c-.38.58-.29,1,.72,1.64s1.37.65,1.81,0c.16-.24.61-1.06.61-1.06Z" transform="translate(-16.42 1.1)"/><path class="cls-2" d="M116.13,118.67l.48-.89,4,2.21-.48.89Z" transform="translate(-16.42 1.1)"/><path class="cls-2" d="M117.88,115.32l1.27-2.87.78.35-.87,2,1,.44.69-1.55.75.33-.69,1.55.92.41.87-2,.78.34-1.27,2.87Z" transform="translate(-16.42 1.1)"/><path class="cls-2" d="M119.92,110.47l1.08-3.22.84.28-.38,1.13,3.53,1.19-.32.94-3.53-1.19-.39,1.15Z" transform="translate(-16.42 1.1)"/><path class="cls-2" d="M126.58,104.12l-.23,1-1.92-.45-2.91.85.26-1.09,1.82-.46-1.43-1.21.26-1.09,2.23,2Z" transform="translate(-16.42 1.1)"/><path class="cls-3" d="M24,83.14l0,.58a2.28,2.28,0,0,0,0,.35,2.18,2.18,0,0,1,0,.32.89.89,0,0,1,0,.29,2.6,2.6,0,0,0,0,.94.72.72,0,0,1,0,.22,1.53,1.53,0,0,0,0,.37v.37c0,.16,0,.32,0,.47a3.16,3.16,0,0,1,0,.47q0,.14,0,.28c0,.09,0,.18,0,.28a.29.29,0,0,0,0,.14.72.72,0,0,1,0,.12v.22a.59.59,0,0,1,0,.22.16.16,0,0,0,0,.17.65.65,0,0,1,.1.32,1.18,1.18,0,0,1,0,.32,2.1,2.1,0,0,0-.07.55,3.07,3.07,0,0,0,0,.55.75.75,0,0,1,0,.26.78.78,0,0,0,0,.24,2.21,2.21,0,0,1,0,.4,1.29,1.29,0,0,0,0,.4A.17.17,0,0,0,24,92a.16.16,0,0,1,0,.07.36.36,0,0,1,0,.26.67.67,0,0,0,0,.29.79.79,0,0,1,0,.38,1.09,1.09,0,0,0,0,.32l0,.3a.69.69,0,0,1,0,.46,1.42,1.42,0,0,0,0,.31v.77a.33.33,0,0,1-.34.34l-.16,0H23.3l-.2,0h-.2a.26.26,0,0,1-.19-.07l-.12-.1a.4.4,0,0,1-.17-.17,1.21,1.21,0,0,0-.17-.37,1.79,1.79,0,0,1-.19-.37.92.92,0,0,1-.08-.16.49.49,0,0,0-.11-.16s0,0,0,0,0,0,0-.07a1.79,1.79,0,0,0-.29-.82L21.41,93a.63.63,0,0,1-.08-.22,1.69,1.69,0,0,0-.1-.2.4.4,0,0,1,0-.2.06.06,0,0,0,0-.06.11.11,0,0,1-.06-.06.22.22,0,0,1-.12-.19,1.45,1.45,0,0,0-.13-.49c-.07-.15-.15-.3-.23-.44l-.1-.12a.37.37,0,0,1,0-.14.42.42,0,0,0,0-.28l-.14-.25-.08-.19L20.1,90a.55.55,0,0,0-.12-.24.36.36,0,0,1-.1-.26.57.57,0,0,0-.1-.36,1.1,1.1,0,0,1-.16-.38,1.46,1.46,0,0,0-.13-.38,3.23,3.23,0,0,1-.26-.65A3.27,3.27,0,0,0,19,87a1.39,1.39,0,0,0-.11-.22,1.14,1.14,0,0,0-.16-.19c-.08,0-.14,0-.17,0l0,.17a.22.22,0,0,0,0,.17.82.82,0,0,1,0,.19v.19a2.89,2.89,0,0,0,0,.46,1.84,1.84,0,0,1,0,.46.19.19,0,0,0,0,.12,8.06,8.06,0,0,1,.07,1,.1.1,0,0,1,0,.07.75.75,0,0,0-.08.38,2.13,2.13,0,0,0,.06.38,1.35,1.35,0,0,1,0,.26V91a.23.23,0,0,1-.07.17v0a1.11,1.11,0,0,1,0,.26.42.42,0,0,0,0,.26c0,.08,0,.16,0,.23a.76.76,0,0,1,0,.23.67.67,0,0,0,0,.29.66.66,0,0,1,0,.55,1.56,1.56,0,0,0,0,.19.51.51,0,0,0,0,.19.31.31,0,0,1,0,.24,2.27,2.27,0,0,0,0,.74.54.54,0,0,1,0,.26,1.21,1.21,0,0,0-.06.29c0,.1,0,.19,0,.29a.58.58,0,0,1-.6.6.31.31,0,0,0-.17,0,.33.33,0,0,1-.14,0,.9.9,0,0,0-.29,0l-.29,0a.43.43,0,0,1-.2,0,.33.33,0,0,1-.11-.18.46.46,0,0,0-.14-.26c-.06,0-.08-.1,0-.19l0-.23a1,1,0,0,0,0-.23v-.38a3.07,3.07,0,0,0,0-.38c0-.11,0-.22,0-.32a.91.91,0,0,1,0-.32.78.78,0,0,0,0-.43.37.37,0,0,1,0-.26.73.73,0,0,0,0-.22v-.29a1.73,1.73,0,0,1,0-.29,1.74,1.74,0,0,0,0-.65.7.7,0,0,1,0-.26.42.42,0,0,1,.1-.26.16.16,0,0,0,0-.17.7.7,0,0,1,0-.41.48.48,0,0,0,0-.34,1.25,1.25,0,0,1,0-.55.3.3,0,0,0,0-.19.4.4,0,0,1,0-.36,2.55,2.55,0,0,0,.07-.34.62.62,0,0,0,0-.34.29.29,0,0,1,0-.14.89.89,0,0,0,0-.14,2.47,2.47,0,0,0,0-.67.15.15,0,0,0,0-.08l0-.08c0-.11,0-.19,0-.24a.59.59,0,0,0,0-.26,1,1,0,0,0,0-.26.57.57,0,0,1,0-.26.23.23,0,0,0,0-.14l0-.12a.73.73,0,0,1,0-.31,1.16,1.16,0,0,0,0-.53.17.17,0,0,1,0-.14,1.11,1.11,0,0,0,0-.28c0-.09,0-.17,0-.25a.72.72,0,0,1,0-.23c0-.07,0-.15,0-.23a1,1,0,0,0,0-.5.71.71,0,0,1,0-.58,1.69,1.69,0,0,0,0-.31v-.28a.68.68,0,0,1,0-.25v-.07a.28.28,0,0,1,0-.31v0a.63.63,0,0,1,0-.32.89.89,0,0,0,0-.32c0-.1,0-.19,0-.28s0-.18,0-.28a1.09,1.09,0,0,1,0-.32,2.1,2.1,0,0,0,0-.32.14.14,0,0,0,0-.1.25.25,0,0,1,0-.22l.1-.19a.38.38,0,0,1,.24-.16h1a.19.19,0,0,1,.19.14,1.1,1.1,0,0,0,.14.31,2.66,2.66,0,0,1,.17.29l0,.14a.53.53,0,0,1,0,.17.57.57,0,0,0,.14.38.16.16,0,0,1,0,.12q0,.26.11.49a1.45,1.45,0,0,0,.2.44.07.07,0,0,1,0,0,.29.29,0,0,0,0,.23.62.62,0,0,1,.1.23,1.08,1.08,0,0,0,.08.3c0,.09.08.18.11.28a.55.55,0,0,1,.07.29,1.38,1.38,0,0,0,.11.41c.06.13.11.26.16.38a.26.26,0,0,1,.07.19.21.21,0,0,1,0,.08.13.13,0,0,0,0,.08s0,.06,0,.07A.33.33,0,0,0,20,84l.14.23a.11.11,0,0,1,0,.12.55.55,0,0,0,0,.31,1.81,1.81,0,0,1,.07.31,1,1,0,0,0,.1.31.33.33,0,0,1,.07.11.3.3,0,0,0,.07.11.53.53,0,0,1,.13.2l.08.23a1.46,1.46,0,0,1,.07.23,1.42,1.42,0,0,0,.07.23.89.89,0,0,1,.16.36,1.14,1.14,0,0,0,.13.36q.1.19.18.4c.06.14.11.28.16.42l.08.14a.81.81,0,0,1,.06.17.93.93,0,0,0,.26.41c.06.1.14.08.22,0a.44.44,0,0,0,0-.24c0-.1,0-.19,0-.29s0-.19,0-.29a2.89,2.89,0,0,1,0-.53,3,3,0,0,0,0-.53.65.65,0,0,0,0-.18.34.34,0,0,1,0-.18V86a1.57,1.57,0,0,0,0-.62,1.54,1.54,0,0,1,0-.47l0-.44v-.23a1.16,1.16,0,0,0,0-.23,1.64,1.64,0,0,1,0-.31,1.31,1.31,0,0,0,0-.29.26.26,0,0,0,0-.08.05.05,0,0,1,0-.06.46.46,0,0,0,0-.29l0-.29v-.43a3.27,3.27,0,0,1,0-.41,3.25,3.25,0,0,0,0-.55,7.45,7.45,0,0,1,0-1.46c0-.13,0-.25,0-.36s0-.23,0-.36.11-.31.34-.31a.83.83,0,0,1,.24,0l.24,0,.26,0a2,2,0,0,1,.36,0l.26,0a.3.3,0,0,1,.24.31v.3a1.8,1.8,0,0,0,0,.3,4.46,4.46,0,0,1,0,.47,2.51,2.51,0,0,0,0,.49,1.48,1.48,0,0,1,0,.6v.07a1.61,1.61,0,0,1,0,.52,1.59,1.59,0,0,0,0,.52.79.79,0,0,1,0,.36A1.73,1.73,0,0,0,24,83.14Z" transform="translate(-16.42 1.1)"/><path class="cls-3" d="M35.1,95.4a.21.21,0,0,0,0,.14c0,.08,0,.14-.1.17l-.23,0a.9.9,0,0,0-.23.06.22.22,0,0,0-.23,0,.47.47,0,0,1-.23.06h-.3l-.32,0q-.24,0-.26-.36l0-.38a3.31,3.31,0,0,0-.07-.38.3.3,0,0,1,0-.17.38.38,0,0,0-.07-.26.08.08,0,0,1,0-.1.1.1,0,0,0,0-.1c0-.14-.06-.29-.08-.43a1.45,1.45,0,0,0-.13-.41.21.21,0,0,1-.06-.1.22.22,0,0,0-.06-.1.14.14,0,0,0,0-.1.15.15,0,0,1,0-.08s0,0,0-.06a.47.47,0,0,1-.18-.18.56.56,0,0,0-.16-.18.77.77,0,0,0-.34-.14l-.36,0a3.32,3.32,0,0,0-.91,0,.93.93,0,0,0-.24.08.53.53,0,0,1-.24.06l0,0a.29.29,0,0,1-.16.17,1,1,0,0,0-.2.12l-.1.12c-.06.13-.12.25-.17.37a1.06,1.06,0,0,0-.07.4.35.35,0,0,1,0,.13.75.75,0,0,1-.07.13.72.72,0,0,0,0,.22,1.13,1.13,0,0,1-.12.55.41.41,0,0,0,0,.12.45.45,0,0,1,0,.2,1.09,1.09,0,0,1-.07.18.16.16,0,0,0,0,.12.46.46,0,0,1,0,.14.39.39,0,0,1-.36.36.76.76,0,0,1-.23,0,.47.47,0,0,0-.23,0h0a.93.93,0,0,0-.38-.06h-.38a.13.13,0,0,1-.14-.14v-.17a.17.17,0,0,1,0-.07.16.16,0,0,0,0-.07,1.18,1.18,0,0,1,0-.35c0-.1.06-.22.1-.35a1.39,1.39,0,0,0,0-.36v-.1a1.63,1.63,0,0,0,.06-.32,1.63,1.63,0,0,1,.06-.32v-.07a.66.66,0,0,1,.1-.53.17.17,0,0,0,0-.14,1.42,1.42,0,0,1,0-.2,1.75,1.75,0,0,1,0-.18,2.8,2.8,0,0,0,.07-.31l0-.31a3.64,3.64,0,0,1,.07-.72q0-.29.12-.58a2.44,2.44,0,0,0,.07-.6.64.64,0,0,1,.07-.29.73.73,0,0,0,0-.36.7.7,0,0,1,0-.43.5.5,0,0,0,0-.34.29.29,0,0,1,.07-.29.43.43,0,0,0,.1-.31.31.31,0,0,0,0-.14.84.84,0,0,1,0-.14.76.76,0,0,1,.1-.38,1.93,1.93,0,0,0,.07-.29l0-.31.17-1.3a.34.34,0,0,0,0-.16,1.05,1.05,0,0,1,0-.16.45.45,0,0,1,0-.14s0-.09.1-.12a.2.2,0,0,0,0-.14L29,84a3.17,3.17,0,0,0,0-.54.72.72,0,0,1,0-.22,4,4,0,0,0,.19-1.18,1.14,1.14,0,0,1,0-.26c0-.14.07-.29.11-.43a.88.88,0,0,0,0-.43.09.09,0,0,1,0-.06.05.05,0,0,0,0,0,.66.66,0,0,0,.13-.34,1.62,1.62,0,0,1,.06-.34l.1-.32a2.09,2.09,0,0,0,.07-.32l0-.23a1.45,1.45,0,0,1,.07-.23.49.49,0,0,1,.2-.28.74.74,0,0,1,.32-.13h.19a.39.39,0,0,0,.17,0,1.1,1.1,0,0,1,.35,0h.32l.23,0a.61.61,0,0,1,.23,0,.51.51,0,0,1,.34.34,3.61,3.61,0,0,1,.12.38,3.62,3.62,0,0,0,.12.38.91.91,0,0,1,.06.25,2.28,2.28,0,0,0,0,.25l.1.48.1.58A3.75,3.75,0,0,0,33,82a.14.14,0,0,1,0,.1.48.48,0,0,1,.11.26c0,.1,0,.18,0,.26a.73.73,0,0,0,0,.31.91.91,0,0,1,0,.29,1.75,1.75,0,0,0,0,.29l.07.22a.84.84,0,0,1,.13.4,2.55,2.55,0,0,1,0,.42,2.31,2.31,0,0,0,0,.24,2.4,2.4,0,0,0,0,.24l.22.67a.37.37,0,0,1,0,.26v.23a.6.6,0,0,0,0,.23.62.62,0,0,1,0,.23.6.6,0,0,0,0,.23.8.8,0,0,1,0,.38.54.54,0,0,0,0,.23l0,.23a1,1,0,0,1,0,.26.57.57,0,0,0,0,.26,1.06,1.06,0,0,1,.11.42,2.65,2.65,0,0,0,.06.44.42.42,0,0,1,0,.17.39.39,0,0,0,0,.25q0,.13.06.25t.11.48c0,.16.08.32.13.48a.72.72,0,0,1,0,.29,1.14,1.14,0,0,0,0,.29,1.17,1.17,0,0,0,0,.35l.1.32,0,.17a.31.31,0,0,1,0,.17,1.26,1.26,0,0,0,0,.46c0,.14.05.3.08.46l.07.38a.43.43,0,0,1,0,.13.15.15,0,0,0,0,.11,0,0,0,0,0,0,0,.05.05,0,0,1,0,0,.47.47,0,0,0,0,.34.68.68,0,0,1,.07.31v.25a.66.66,0,0,0,0,.25l0,.17A.2.2,0,0,1,35.1,95.4ZM32.3,88.95a.3.3,0,0,0,0-.11.42.42,0,0,1,0-.16l0-.6q0-.19-.08-.37c0-.12,0-.24-.06-.37a1.42,1.42,0,0,0-.08-.49,1,1,0,0,1-.06-.47s0-.06,0-.12,0-.19-.06-.29a1.19,1.19,0,0,1,0-.29c0-.13,0-.26-.06-.4a1.3,1.3,0,0,1,0-.4.1.1,0,0,0,0-.07,2.05,2.05,0,0,1-.08-.5,2.1,2.1,0,0,0-.08-.5,1.77,1.77,0,0,1-.07-.31,1.31,1.31,0,0,0-.07-.29.24.24,0,0,0-.26-.07.38.38,0,0,0-.17,0,.26.26,0,0,0-.12.19,1.15,1.15,0,0,1,0,.22q-.07.31-.14.72c0,.27-.09.51-.12.72s-.09.54-.12.71-.06.42-.1.76c0,.14,0,.28-.06.41a1.38,1.38,0,0,0,0,.41.16.16,0,0,1,0,.12,1.09,1.09,0,0,0-.07.38.35.35,0,0,1,0,.29.61.61,0,0,0,0,.38.82.82,0,0,1,0,.28L30,89a1,1,0,0,0,.07.58.93.93,0,0,0,.26.29,1.72,1.72,0,0,0,.34.17,1.45,1.45,0,0,0,.94,0,.86.86,0,0,0,.58-.6.65.65,0,0,0,0-.24A2.08,2.08,0,0,1,32.3,88.95Z" transform="translate(-16.42 1.1)"/><path class="cls-3" d="M43,79.66a.57.57,0,0,0,0,.11.54.54,0,0,1,0,.11.68.68,0,0,1-.34.7.16.16,0,0,1-.12,0l-.12,0a.64.64,0,0,1-.24,0H42a1.27,1.27,0,0,0-.3,0h-.3a.25.25,0,0,0-.22.1A.9.9,0,0,1,41,81a.45.45,0,0,0-.22.31q0,.19,0,.37t0,.37a.12.12,0,0,0,0,.14.31.31,0,0,1,0,.29.29.29,0,0,0,0,.19.41.41,0,0,1,0,.38.2.2,0,0,0,0,.22,1.57,1.57,0,0,1,0,.38l-.07.48a.5.5,0,0,0,0,.24,2.36,2.36,0,0,0,0,.24,2,2,0,0,0,0,.23,2.09,2.09,0,0,1,0,.23.66.66,0,0,0,0,.29.34.34,0,0,1,0,.19,1.76,1.76,0,0,1,0,.19v.17a.58.58,0,0,1,0,.36.36.36,0,0,0,0,.34.17.17,0,0,1,0,.14,2.38,2.38,0,0,0,0,.24.5.5,0,0,0,0,.24v0a.55.55,0,0,0,0,.28l0,.28a.29.29,0,0,1,0,.26.23.23,0,0,0,0,.17.9.9,0,0,1,0,.25.86.86,0,0,0,0,.25.62.62,0,0,1,0,.24,1.21,1.21,0,0,0,0,.24.1.1,0,0,1,0,.06,0,0,0,0,0,0,0,.2.2,0,0,1,0,.18.65.65,0,0,0,0,.18.41.41,0,0,1,0,.1.13.13,0,0,0,0,.1.89.89,0,0,1,0,.58.11.11,0,0,0,0,.12.59.59,0,0,1,0,.41.44.44,0,0,0,0,.29.94.94,0,0,1,.06.2,1.43,1.43,0,0,1,0,.2l0,.29a1.89,1.89,0,0,0,0,.31V93a1,1,0,0,0,.1.46.26.26,0,0,1,0,.31.36.36,0,0,0,0,.14c0,.1,0,.2,0,.3a.75.75,0,0,0,0,.3.42.42,0,0,1,0,.31.5.5,0,0,0,0,.24.81.81,0,0,1,0,.24v.31a.25.25,0,0,1-.19.24l-.12,0a.16.16,0,0,0-.12,0,.31.31,0,0,1-.29,0,.28.28,0,0,0-.22,0,.93.93,0,0,1-.26,0,1.1,1.1,0,0,0-.29,0,.31.31,0,0,1-.31-.07.65.65,0,0,1-.17-.31l-.07-.41a.73.73,0,0,1,0-.18.31.31,0,0,1,.07-.18.19.19,0,0,0,0-.12.58.58,0,0,1,0-.29,1,1,0,0,0,0-.31,1.07,1.07,0,0,1,0-.16.22.22,0,0,0,0-.16.33.33,0,0,1,0-.14,2.36,2.36,0,0,0,0-.47v-.47a1.23,1.23,0,0,1,0-.3,1.27,1.27,0,0,0,0-.3,1.2,1.2,0,0,1,0-.48,1.77,1.77,0,0,0,0-.5v-.17a1,1,0,0,1,0-.36.42.42,0,0,0,0-.17.81.81,0,0,1,0-.55.23.23,0,0,0,0-.14.31.31,0,0,1,0-.24.68.68,0,0,0,0-.28,1.27,1.27,0,0,0-.06-.28.2.2,0,0,1,0-.19.35.35,0,0,0,.06-.22,1.68,1.68,0,0,1,0-.22,2.26,2.26,0,0,0-.07-.55v-.12a1,1,0,0,0,.07-.36v-.36a4.73,4.73,0,0,0,0-.58,4.54,4.54,0,0,1,0-.58,3,3,0,0,0,0-.47,1.32,1.32,0,0,1,0-.47.39.39,0,0,0,0-.17.26.26,0,0,1,0-.26.43.43,0,0,0,.07-.26l-.07-.82V83a1.21,1.21,0,0,0,0-.53v-.26a2,2,0,0,0,0-.48c0-.16,0-.32,0-.48a.55.55,0,0,0-.22-.46.77.77,0,0,0-.48-.24l-.29-.07-.18,0a.4.4,0,0,0-.18,0,.37.37,0,0,1-.26,0,1.5,1.5,0,0,0-.29-.1.4.4,0,0,1-.26-.36,1.3,1.3,0,0,0,0-.18,1.24,1.24,0,0,1,0-.18.49.49,0,0,0,0-.12.37.37,0,0,1,0-.1.59.59,0,0,1,.14-.53s0,0,0,0a1.19,1.19,0,0,0,.28-.13.36.36,0,0,1,.3,0,.88.88,0,0,0,.35,0l.35-.07a.35.35,0,0,1,.29,0,.75.75,0,0,0,.38,0l.29,0a.49.49,0,0,1,.29,0,.67.67,0,0,0,.43,0,.85.85,0,0,1,.24,0l.24,0a.64.64,0,0,1,.24,0,.18.18,0,0,0,.17,0l.17-.06h.19a1,1,0,0,1,.25,0,.38.38,0,0,0,.25,0,1.17,1.17,0,0,1,.32,0,1.44,1.44,0,0,1,.35,0,.55.55,0,0,0,.36,0,.49.49,0,0,1,.24,0l.24.06c.06,0,.11,0,.14.12a.61.61,0,0,1,.07.14.39.39,0,0,1,0,.19,1,1,0,0,0,0,.17S43,79.59,43,79.66Z" transform="translate(-16.42 1.1)"/><path class="cls-3" d="M52.84,82.66a1.29,1.29,0,0,1,0,.18l0,.2a.64.64,0,0,0,0,.24,1.6,1.6,0,0,0,0,.26,1.67,1.67,0,0,1,0,.79.07.07,0,0,0,0,0,1.25,1.25,0,0,1,0,.52,1,1,0,0,0,0,.52l0,.26a1.3,1.3,0,0,1,0,.48,1.07,1.07,0,0,0,0,.55,1.8,1.8,0,0,1,0,.34.5.5,0,0,0,0,.24,2.35,2.35,0,0,0,0,.24.72.72,0,0,1,0,.26.76.76,0,0,0,0,.22,3.07,3.07,0,0,1,0,.37,1.51,1.51,0,0,0,0,.37,1,1,0,0,1,0,.41.93.93,0,0,0,0,.55.46.46,0,0,1,0,.34,2.89,2.89,0,0,0,0,.72l0,.41a1.31,1.31,0,0,1,0,.43,2.07,2.07,0,0,0-.06.36,1.13,1.13,0,0,0,0,.36.35.35,0,0,1,0,.29l-.1.31a1,1,0,0,0,0,.34,3.1,3.1,0,0,1-.06.31,3.18,3.18,0,0,0-.06.31.39.39,0,0,1-.12.29,1,1,0,0,0-.19.34.14.14,0,0,1,0,.1l-.29.48a.29.29,0,0,1-.24.19.11.11,0,0,0-.12.1.59.59,0,0,1-.19.23l-.24.16-.13.07a.32.32,0,0,0-.11.07.26.26,0,0,1-.19.07,1,1,0,0,0-.31,0l-.31.12a.1.1,0,0,1-.07,0,.89.89,0,0,0-.38,0,1.21,1.21,0,0,1-.38,0l-.14,0a.28.28,0,0,1-.14-.08.24.24,0,0,0-.17,0,.86.86,0,0,1-.35-.12,2.46,2.46,0,0,0-.32-.17.15.15,0,0,1-.1-.1.93.93,0,0,0-.24-.17.42.42,0,0,1-.26-.19l-.55-.79a.3.3,0,0,1-.07-.13l0-.16a1.85,1.85,0,0,1-.07-.29,1.86,1.86,0,0,0-.07-.29,1.63,1.63,0,0,1-.12-.67s0-.05,0-.06,0,0,0-.06l0-.25a.45.45,0,0,1,0-.25.31.31,0,0,0,0-.26.57.57,0,0,1,0-.34,1.38,1.38,0,0,0,0-.72.67.67,0,0,1,0-.29,1.17,1.17,0,0,0,0-.34.38.38,0,0,1,0-.22,2.4,2.4,0,0,1,0-.24,2.35,2.35,0,0,0,0-.34,1.49,1.49,0,0,0,0-.36.56.56,0,0,1,0-.2,1.48,1.48,0,0,1,0-.2.87.87,0,0,0,0-.41.68.68,0,0,1,0-.5.44.44,0,0,0,0-.22,1.71,1.71,0,0,1,0-.22,1.31,1.31,0,0,0,0-.18,2.31,2.31,0,0,1,0-.59.26.26,0,0,1,0-.08.27.27,0,0,0,0-.08,1,1,0,0,1,0-.34,1.58,1.58,0,0,0,0-.34,2.8,2.8,0,0,1,0-.37,1.48,1.48,0,0,0,0-.37.16.16,0,0,1,0-.17s0-.08,0-.1a.26.26,0,0,1-.06-.19c0-.06,0-.14,0-.22a.42.42,0,0,0,0-.17,1,1,0,0,1,0-.17,3.12,3.12,0,0,0,0-.61,2.43,2.43,0,0,1,0-.64.15.15,0,0,0,0-.13.56.56,0,0,1-.06-.16.38.38,0,0,0,0-.1.14.14,0,0,1,0-.1,1.67,1.67,0,0,0,.07-.62,4.19,4.19,0,0,0,0-.54,1.9,1.9,0,0,1,0-.56,1,1,0,0,0,0-.34,1.55,1.55,0,0,1,0-.34,1.52,1.52,0,0,0,0-.32,1.46,1.46,0,0,1,0-.32,1.31,1.31,0,0,0,0-.25.67.67,0,0,1,0-.25.36.36,0,0,1,.36-.24h.49a.54.54,0,0,0,.25,0,.38.38,0,0,1,.31,0,.73.73,0,0,1,.24.23,1,1,0,0,1,.11.26.5.5,0,0,1,0,.29v0a.63.63,0,0,1,0,.36c0,.11,0,.23-.06.36a.19.19,0,0,0,0,.12.67.67,0,0,1,0,.25,1.27,1.27,0,0,1,0,.25,1,1,0,0,0,0,.26,1.16,1.16,0,0,1,0,.26,3.47,3.47,0,0,1,0,.4,1.62,1.62,0,0,0,0,.4v0a.54.54,0,0,1,0,.34c0,.11-.05.22-.08.34v.14a.87.87,0,0,1,0,.28v.25a.84.84,0,0,0,0,.24.51.51,0,0,1,0,.19.6.6,0,0,0,0,.26,2.14,2.14,0,0,1,0,.49q0,.23,0,.49a1.15,1.15,0,0,0,0,.53,1.18,1.18,0,0,1,0,.62v.07a3.26,3.26,0,0,1,0,.68,3.22,3.22,0,0,0,0,.68.19.19,0,0,1,0,.12.87.87,0,0,0,0,.28,1.66,1.66,0,0,0,0,.28l0,.29a.73.73,0,0,1,0,.41,1.36,1.36,0,0,0,0,.72.46.46,0,0,1,0,.25l0,.25c0,.1,0,.19,0,.28a.43.43,0,0,0,.08.28l0,0v0a1.09,1.09,0,0,0,0,.32.76.76,0,0,1,0,.32.34.34,0,0,0,0,.14,2.23,2.23,0,0,1,.1.7v.26a.69.69,0,0,0,0,.26,1,1,0,0,0,.12.36,2.08,2.08,0,0,0,.22.31l.07.1a.48.48,0,0,0,.31.19.55.55,0,0,0,.28,0,.82.82,0,0,1,.28,0l.1,0,.1,0a2.12,2.12,0,0,0,.3-.2.58.58,0,0,0,.18-.35.28.28,0,0,1,.1-.19c.06,0,.09-.07.07-.12a.28.28,0,0,1,0-.23.38.38,0,0,0,0-.23.16.16,0,0,1,0-.14.26.26,0,0,0,0-.14.1.1,0,0,1,0-.07s0,0,0-.07a.26.26,0,0,1,0-.19.91.91,0,0,1,.07-.19.35.35,0,0,0,0-.22l0-.22a.78.78,0,0,1,0-.5.85.85,0,0,0,0-.24q0-.12,0-.25c0-.09,0-.17,0-.25a.16.16,0,0,0,0-.12.63.63,0,0,1,0-.58,0,0,0,0,1,0,0,0,0,0,0,0,0,0c0-.13,0-.25,0-.36a1.7,1.7,0,0,0-.06-.34.62.62,0,0,1,0-.38,1,1,0,0,0,0-.48V87.6a.37.37,0,0,0,0-.22.56.56,0,0,1,0-.53.37.37,0,0,0,0-.22.67.67,0,0,1,0-.22,1.59,1.59,0,0,0,0-.19.49.49,0,0,1,0-.22.8.8,0,0,0,0-.19.89.89,0,0,0,0-.29,1.32,1.32,0,0,1,0-.5l0-.4a1.63,1.63,0,0,0,0-.4v-.31a.9.9,0,0,1,0-.29.07.07,0,0,0,0,0,.26.26,0,0,1-.06-.19.44.44,0,0,0,0-.22.42.42,0,0,1,0-.43.61.61,0,0,0,0-.38,1.72,1.72,0,0,1,0-.65.87.87,0,0,0,0-.53,1.7,1.7,0,0,1,0-.18.61.61,0,0,1,0-.2.53.53,0,0,0,0-.41.09.09,0,0,1,0-.07.16.16,0,0,0,0-.07,2,2,0,0,0,0-.6.35.35,0,0,1,0-.13.29.29,0,0,0,0-.11,1.41,1.41,0,0,1,0-.25l0-.25q0-.31.43-.34h.23a.47.47,0,0,1,.23,0,.4.4,0,0,0,.19,0,.59.59,0,0,1,.67.34.75.75,0,0,1,.1.31v.32a1.86,1.86,0,0,1,0,.3,2,2,0,0,0,0,.6.63.63,0,0,1,0,.48.61.61,0,0,0,0,.28,2.27,2.27,0,0,0,0,.28,2,2,0,0,1,0,.37,2,2,0,0,0,0,.37l0,.2A.63.63,0,0,1,52.84,82.66Z" transform="translate(-16.42 1.1)"/><path class="cls-3" d="M63.21,84.91a.65.65,0,0,1,0,.24v.29a.36.36,0,0,0-.06.23,2.13,2.13,0,0,1,0,.23v.16a.22.22,0,0,1-.07.16l0,0a.35.35,0,0,1,0,.2.45.45,0,0,0,0,.18.54.54,0,0,1,0,.17.16.16,0,0,0,0,.14s0,0,0,.07a.25.25,0,0,0,0,.26.2.2,0,0,1,0,.19,1.67,1.67,0,0,0-.1.37,1.32,1.32,0,0,1-.1.35.92.92,0,0,0-.1.22l-.1.29a.19.19,0,0,1,0,.12l-.1.14-.1.12a.18.18,0,0,0-.08.13.38.38,0,0,1-.06.16.39.39,0,0,1-.17.24c-.06,0-.1.07-.1.12v0a1.42,1.42,0,0,1-.11.18.71.71,0,0,1-.16.16l-.07.07a1.21,1.21,0,0,1-.12.23.34.34,0,0,0,0,.25.31.31,0,0,1,0,.17.3.3,0,0,0,0,.17.45.45,0,0,0,0,.24,0,0,0,0,0,0,0,0,0,0,0,1,0,0,.43.43,0,0,0,0,.34,1.29,1.29,0,0,0,.12.31v0a.82.82,0,0,0,0,.35,1.1,1.1,0,0,1,0,.32l0,.12,0,.12.07.24a.45.45,0,0,0,0,.14l0,.14v0a.37.37,0,0,0,0,.26l.1.24v0a.39.39,0,0,0,0,.31,1.09,1.09,0,0,1,.14.58s0,.07,0,.07a.21.21,0,0,1,.06.1.43.43,0,0,0,0,.1v.29a.07.07,0,0,0,0,.08.07.07,0,0,1,0,.08.51.51,0,0,1-.14.17.54.54,0,0,1-.17.07l-.17,0h-.13a.17.17,0,0,1-.11,0,.5.5,0,0,1-.22,0,.5.5,0,0,0-.22,0h-.23a.61.61,0,0,1-.23,0,.24.24,0,0,1-.22-.17l-.1-.24a.31.31,0,0,1,0-.24.3.3,0,0,0,0-.19l-.12-.34a.23.23,0,0,1,0-.26.76.76,0,0,0,0-.53.65.65,0,0,1,0-.34,1.14,1.14,0,0,0-.14-.55.46.46,0,0,1-.1-.24.54.54,0,0,0,0-.28l-.1-.28a1.07,1.07,0,0,0-.29-.48.27.27,0,0,0-.29-.1l-.18,0a.41.41,0,0,0-.18,0,.48.48,0,0,0-.24.18.46.46,0,0,0-.1.28c0,.11,0,.22,0,.32a1.27,1.27,0,0,1-.06.3v.1a.91.91,0,0,1,0,.58.62.62,0,0,0,0,.38s0,.05,0,.06,0,0,0,.06a.44.44,0,0,0,0,.24.39.39,0,0,1,0,.19.78.78,0,0,0,0,.19,1,1,0,0,0,0,.26.39.39,0,0,1,0,.17.13.13,0,0,0,0,.17.22.22,0,0,1,0,.16,1.23,1.23,0,0,0,0,.18.36.36,0,0,1-.12.2.21.21,0,0,1-.19.06.39.39,0,0,0-.22,0h-.07s-.11,0-.19,0-.07,0-.12,0a.19.19,0,0,0-.14,0h-.14a2,2,0,0,0-.36,0,.26.26,0,0,1-.26-.19,1.2,1.2,0,0,1,0-.67,1.15,1.15,0,0,0,0-.16,1.07,1.07,0,0,1,0-.16v-.07a.16.16,0,0,0,.06-.14.44.44,0,0,0,0-.12.33.33,0,0,1,0-.14.16.16,0,0,0,0-.14l0-.14v-.34a1.21,1.21,0,0,1,0-.24.3.3,0,0,0,0-.17l0-.14a1.71,1.71,0,0,1,0-.22.53.53,0,0,0,0-.19.34.34,0,0,1,0-.18c0-.06,0-.12,0-.2a.51.51,0,0,0,0-.19,1.23,1.23,0,0,1,0-.48v-.07a1.17,1.17,0,0,0,0-.29c0-.1,0-.19,0-.29s0-.19,0-.28,0-.17,0-.25a1.3,1.3,0,0,1,0-.29.3.3,0,0,0,0-.18,1.23,1.23,0,0,1,0-.18v-.48a2.5,2.5,0,0,1-.07-.32.75.75,0,0,1,0-.32,1.08,1.08,0,0,0,0-.4l0-.4a.1.1,0,0,0,0-.07.16.16,0,0,1,0-.17.32.32,0,0,0,0-.36.35.35,0,0,1,0-.36.7.7,0,0,0,.07-.48,1.09,1.09,0,0,1,0-.46.94.94,0,0,0,0-.55.73.73,0,0,1,0-.31.34.34,0,0,0,0-.16,1.22,1.22,0,0,1,0-.18v-.24a1.21,1.21,0,0,1,0-.24,1.47,1.47,0,0,0,0-.65.19.19,0,0,1,0-.12v-.07a.32.32,0,0,1,0-.36,1.3,1.3,0,0,0,0-.29c0-.08,0-.16,0-.25s0-.18,0-.28a.33.33,0,0,0,0-.14.21.21,0,0,1,0-.22.53.53,0,0,1,0-.17.3.3,0,0,0,0-.17,1.3,1.3,0,0,1,0-.29.23.23,0,0,0,0-.17.1.1,0,0,1,0-.1.4.4,0,0,0,0-.1,1.25,1.25,0,0,0,0-.38,2,2,0,0,1,0-.38v-.32a.93.93,0,0,1,0-.3.42.42,0,0,0,0-.17l.07-.14a.48.48,0,0,1,.12-.16l.12-.11.23-.16a.3.3,0,0,1,.25,0,.16.16,0,0,0,.12,0,.22.22,0,0,1,.24,0H58a.38.38,0,0,1,.23,0,.38.38,0,0,0,.23,0s.08,0,.14,0a.31.31,0,0,0,.19.07l.22,0,.23,0a.47.47,0,0,1,.23,0l.16.08a.22.22,0,0,0,.16,0,.38.38,0,0,1,.16,0l.16,0a.36.36,0,0,1,.18,0l.18.1a.31.31,0,0,0,.12.07.31.31,0,0,1,.12.07l.53.26s.06,0,.1.07a.83.83,0,0,0,.43.38.22.22,0,0,1,.14.13,1,1,0,0,0,.07.18l0,.1.11.19a.52.52,0,0,0,.18.17.62.62,0,0,1,.12.29.36.36,0,0,0,0,.14l.22.29a.28.28,0,0,1,.1.19.84.84,0,0,0,0,.24c0,.08,0,.16.06.24s0,0,0,0,0,0,0,0a.19.19,0,0,1,0,.14.72.72,0,0,0,0,.12.4.4,0,0,0,0,.31l0,.08a.08.08,0,0,1,0,.08.51.51,0,0,0,0,.2,1.09,1.09,0,0,1,.06.2.78.78,0,0,1,0,.43.44.44,0,0,0,0,.24,2,2,0,0,1,0,.36.86.86,0,0,0,0,.14.89.89,0,0,1,0,.14.29.29,0,0,1,0,.26S63.17,84.88,63.21,84.91Zm-1.94-.43a.31.31,0,0,0,0-.19.5.5,0,0,1,0-.38v-.07l-.1-.47L61,82.9a1.28,1.28,0,0,0-.17-.43.16.16,0,0,1,0-.12.14.14,0,0,0,0-.1.84.84,0,0,1-.11-.18,1,1,0,0,0-.08-.16,1.49,1.49,0,0,1-.07-.22.54.54,0,0,0-.1-.19,1.53,1.53,0,0,0-.17-.23l-.19-.2-.17-.14a.28.28,0,0,0-.14-.17l-.29-.11a.74.74,0,0,0-.29-.06.42.42,0,0,0-.38.19.47.47,0,0,1-.12.17,0,0,0,0,1,0,0,0,0,0,0,0,0,0,1.11,1.11,0,0,0,0,.22.43.43,0,0,1,0,.19v0a.5.5,0,0,1,0,.38.22.22,0,0,0-.06.13.3.3,0,0,0,0,.18.41.41,0,0,1,0,.17V83a.14.14,0,0,1,0,.1,1.51,1.51,0,0,1,0,.2.6.6,0,0,0,0,.2,2.5,2.5,0,0,1,0,.25.54.54,0,0,1,0,.25.59.59,0,0,0,0,.24v0a.22.22,0,0,0,0,.16,1.15,1.15,0,0,1,0,.16l0,.4a1.84,1.84,0,0,1,0,.42,1.55,1.55,0,0,0,0,.34,1,1,0,0,1,0,.34.33.33,0,0,0,0,.14.25.25,0,0,1,0,.14v.7a1.53,1.53,0,0,1,0,.28.43.43,0,0,0,0,.28v0a.59.59,0,0,0,0,.22v.22a.86.86,0,0,0,0,.14.89.89,0,0,1,0,.14.44.44,0,0,0,0,.23.72.72,0,0,1,0,.23.27.27,0,0,0,.14.26.16.16,0,0,0,.12,0l.12,0a.25.25,0,0,0,.19,0,.54.54,0,0,1,.17-.07.57.57,0,0,0,.26-.12s.06,0,.07,0a.22.22,0,0,0,.18-.07l.11-.12a.36.36,0,0,1,.24-.22.58.58,0,0,0,.24-.24l.1-.17a.64.64,0,0,1,.12-.17.14.14,0,0,0,0-.1.54.54,0,0,1,0-.11.56.56,0,0,0,0-.11.56.56,0,0,1,.12-.22l.1-.12a3.86,3.86,0,0,0,.17-.55.62.62,0,0,0,0-.34v-.07a1.18,1.18,0,0,1,0-.29c0-.1,0-.19.06-.29a2,2,0,0,1,0-.23,2.11,2.11,0,0,0,0-.23,1.31,1.31,0,0,0,0-.18.46.46,0,0,1,0-.18.88.88,0,0,0,0-.25C61.27,84.65,61.26,84.56,61.26,84.48Z" transform="translate(-16.42 1.1)"/><path class="cls-3" d="M69.23,80.88a.56.56,0,0,0-.41.48l-.06.26a1.19,1.19,0,0,0,0,.29.62.62,0,0,0,0,.19.41.41,0,0,1,0,.34,1,1,0,0,0,0,.36,1.3,1.3,0,0,1,0,.29,1.34,1.34,0,0,0,0,.26v.29a1.11,1.11,0,0,0,0,.38.25.25,0,0,1,0,.18.75.75,0,0,0,0,.2,1.31,1.31,0,0,0,0,.43,4,4,0,0,1,0,.43.29.29,0,0,0,0,.14.2.2,0,0,1,0,.12.29.29,0,0,0,0,.22.4.4,0,0,1,0,.22.84.84,0,0,0,0,.14.2.2,0,0,1,0,.14.35.35,0,0,0,0,.29.84.84,0,0,1,0,.34.88.88,0,0,0,0,.25c0,.09,0,.17,0,.25a.53.53,0,0,0,.34.53l.13.06.11.06a.63.63,0,0,0,.24,0l.24,0H70a.09.09,0,0,1,.07,0,.82.82,0,0,0,.55,0,.38.38,0,0,1,.46.17,1.07,1.07,0,0,1,.07.18.32.32,0,0,1,0,.2.06.06,0,0,0,0,.1.41.41,0,0,1,0,.2c0,.06,0,.12,0,.2a1.08,1.08,0,0,0,0,.35,1.79,1.79,0,0,1,0,.35A.28.28,0,0,1,71,90a.31.31,0,0,1-.46.22.84.84,0,0,0-.38,0h-.24a.5.5,0,0,0-.24,0,.86.86,0,0,1-.23.06.91.91,0,0,0-.23.06.81.81,0,0,0-.5.65.25.25,0,0,0,0,.08.28.28,0,0,1,0,.08,1.24,1.24,0,0,1,0,.3,1.22,1.22,0,0,0,0,.3.21.21,0,0,1,0,.1l0,.19a.35.35,0,0,0,0,.22.21.21,0,0,1,0,.1.4.4,0,0,0,0,.34.25.25,0,0,1,0,.22.47.47,0,0,0,0,.34.15.15,0,0,1,0,.11.15.15,0,0,0,0,.11.32.32,0,0,0,.13.17l.2.1a.34.34,0,0,0,.19,0,.22.22,0,0,1,.24,0,.33.33,0,0,0,.24.07.42.42,0,0,1,.17,0,.42.42,0,0,0,.17,0,.21.21,0,0,1,.22,0,.94.94,0,0,0,.3,0l.3,0a.71.71,0,0,1,.23,0l.23.06s.07,0,.07,0l.1.14a.3.3,0,0,1,0,.17,2.49,2.49,0,0,1,0,.28.77.77,0,0,1,0,.3.68.68,0,0,0,0,.36.65.65,0,0,1-.19.58.37.37,0,0,1-.26.07h-.12a.13.13,0,0,0-.12,0,.14.14,0,0,1-.1,0h-.19a.72.72,0,0,0-.32,0,.34.34,0,0,1-.3,0,.35.35,0,0,0-.29,0l-.38,0a.16.16,0,0,1-.12,0,1.09,1.09,0,0,0-.46,0,.28.28,0,0,1-.19,0l-.19,0a.32.32,0,0,0-.14,0,.24.24,0,0,1-.17,0H68a.22.22,0,0,0-.16,0,.27.27,0,0,1-.29,0,.28.28,0,0,0-.16-.08l-.16,0a.59.59,0,0,1-.41-.43l0-.31a2.86,2.86,0,0,0-.07-.31v-.07a1,1,0,0,0,0-.43,1.86,1.86,0,0,1,0-.41.7.7,0,0,0,0-.13.16.16,0,0,1,0-.11s0-.08,0-.1a.54.54,0,0,1-.06-.29c0-.1,0-.2,0-.31a1,1,0,0,0,0-.26v-.31a2.2,2.2,0,0,1,0-.31V91.9a.3.3,0,0,1,0-.24.38.38,0,0,0,0-.23,1.52,1.52,0,0,0-.07-.23.61.61,0,0,1,0-.23.45.45,0,0,1,.07-.23.67.67,0,0,0,0-.29l-.07-.41a.25.25,0,0,1,0-.08.27.27,0,0,0,0-.08.54.54,0,0,0,0-.25.54.54,0,0,1,0-.25l0,0c-.08-.08-.11-.15-.1-.22a1.59,1.59,0,0,1,.07-.22.84.84,0,0,0,0-.24,2.81,2.81,0,0,1,0-.35v-.49a.34.34,0,0,1,0-.29q0-.12,0-.25c0-.09,0-.17,0-.25a.38.38,0,0,1,0-.34.29.29,0,0,0,0-.19v-.17a1.2,1.2,0,0,0,0-.37,2.17,2.17,0,0,0-.06-.37.32.32,0,0,1,0-.23.33.33,0,0,0,0-.23.14.14,0,0,1,0-.1.63.63,0,0,0,0-.43v-.07a.94.94,0,0,0,0-.36l0-.34a.92.92,0,0,1,0-.44,1.07,1.07,0,0,0,0-.42c0-.08,0-.16,0-.25a1.06,1.06,0,0,1,0-.28v0a.52.52,0,0,1,0-.3,2,2,0,0,1,.07-.28.1.1,0,0,1,0-.06s0,0,0-.06a.67.67,0,0,1,0-.22.3.3,0,0,0-.08-.22.22.22,0,0,1,0-.17,1.49,1.49,0,0,0,.1-.29,1.58,1.58,0,0,0,0-.38v-.38a.72.72,0,0,1,0-.22,1.64,1.64,0,0,1,.16-.42,1.19,1.19,0,0,1,.28-.35,1.51,1.51,0,0,1,.35-.26.79.79,0,0,1,.44-.07.26.26,0,0,0,.19-.07.47.47,0,0,1,.36,0,.11.11,0,0,0,.12,0,1,1,0,0,1,.36,0,.31.31,0,0,0,.17,0l.17,0,.53-.07h0a.32.32,0,0,0,.19,0,.33.33,0,0,1,.19,0,.59.59,0,0,0,.38,0,.22.22,0,0,1,.24,0,.26.26,0,0,0,.24.07.36.36,0,0,1,.46.24.79.79,0,0,1,0,.19.33.33,0,0,0,0,.14,1.31,1.31,0,0,1,0,.29.79.79,0,0,1,0,.28.67.67,0,0,0,0,.25.36.36,0,0,1,0,.13l0,.13a.38.38,0,0,1-.43.29,1,1,0,0,0-.43.12l-.19,0a.38.38,0,0,1-.17,0,.41.41,0,0,0-.26,0,.51.51,0,0,1-.19,0,.14.14,0,0,0-.1,0,.21.21,0,0,1-.17.1l-.17,0a.38.38,0,0,0-.22,0A.16.16,0,0,1,69.23,80.88Z" transform="translate(-16.42 1.1)"/><path class="cls-3" d="M75.47,81a1,1,0,0,1-.26-.41,1.37,1.37,0,0,1-.07-.23.53.53,0,0,1,0-.23l.07-.38,0-.19a.35.35,0,0,1,.1-.17.16.16,0,0,0,.07-.07.36.36,0,0,1,.07-.1l.2-.14a.41.41,0,0,1,.23-.07h0a.45.45,0,0,1,.36,0l.31.13a.58.58,0,0,1,.31.19l.14.14a.36.36,0,0,1,.1.19,0,0,0,0,0,0,0,.05.05,0,0,1,0,0,.37.37,0,0,1,.12.26.45.45,0,0,0,0,.24.07.07,0,0,1,0,0,.1.1,0,0,0,0,.12.13.13,0,0,1,0,.12.51.51,0,0,0,0,.11.11.11,0,0,1,0,.11.06.06,0,0,0,0,.1.74.74,0,0,1,0,.31,2.11,2.11,0,0,0-.14.48.39.39,0,0,1-.12.29l-.1.22a.77.77,0,0,1-.14.19.21.21,0,0,0-.06.11.22.22,0,0,1-.06.11l-.13.1-.11.1-.08.08-.08.08-.12.07a.92.92,0,0,1-.26.1.19.19,0,0,1-.22-.1,1,1,0,0,1-.08-.16,1,1,0,0,0-.08-.16v0a.32.32,0,0,1,0-.14c0-.08.06-.16.08-.24a.5.5,0,0,1,.13-.22.22.22,0,0,0,.06-.12.44.44,0,0,1,0-.12l.08-.17a.23.23,0,0,0,0-.17s0-.06,0-.12,0-.12,0-.12a.84.84,0,0,1-.34-.07A.26.26,0,0,1,75.47,81Z" transform="translate(-16.42 1.1)"/><path class="cls-3" d="M87.54,90.84a1,1,0,0,1,0,.62.55.55,0,0,1,0,.28,1.34,1.34,0,0,1-.07.25,1.11,1.11,0,0,0,0,.2v.2a1.05,1.05,0,0,1,0,.17s0,.1,0,.17a1.82,1.82,0,0,0-.07.29.84.84,0,0,0,0,.29.22.22,0,0,1,0,.17.54.54,0,0,0-.1.19l0,.19a.82.82,0,0,1-.06.17l-.08.14c-.06.11-.13.21-.19.3a2,2,0,0,0-.17.28,2.66,2.66,0,0,1-.43.5l-.17.14c-.06.1-.13.14-.19.14a.28.28,0,0,0-.18,0l-.11.1a.69.69,0,0,1-.14.12l-.44.1a2.2,2.2,0,0,0-.44.14.13.13,0,0,1-.11,0l-.11,0a.17.17,0,0,0-.14,0A.55.55,0,0,1,84,96l-.25-.07-.31-.11a.66.66,0,0,0-.34,0s-.1,0-.17-.07a.46.46,0,0,0-.19-.18l-.24-.13-.1-.07-.1-.07,0,0A.46.46,0,0,1,82,95a1.62,1.62,0,0,0-.17-.26s-.06,0-.07,0a.21.21,0,0,1-.19-.24l-.07-.19a1.11,1.11,0,0,1-.19-.5.14.14,0,0,0,0-.1,1.41,1.41,0,0,1-.07-.23,1.64,1.64,0,0,0-.07-.23.78.78,0,0,1,0-.24v-.12a.53.53,0,0,1-.1-.3v-.35a2,2,0,0,0,0-.36.57.57,0,0,1,0-.26c0-.1,0-.18,0-.26l0-.2a.42.42,0,0,0,0-.2.26.26,0,0,1,0-.24,1,1,0,0,1,.06-.14l.08-.14a.26.26,0,0,1,.26-.17h.53l.2,0a.42.42,0,0,0,.2,0,.1.1,0,0,1,.07,0l.07,0,.19.28a.38.38,0,0,1,0,.32.71.71,0,0,0,0,.23.73.73,0,0,1,0,.23v.07a.92.92,0,0,0,0,.44l.11.4a.15.15,0,0,0,0,.07.17.17,0,0,1,0,.07c0,.13.06.24.1.34a.29.29,0,0,1,.07.22.75.75,0,0,0,.13.32.5.5,0,0,0,.28.2l.11.07a.24.24,0,0,0,.16,0l.24.07h.24a1.22,1.22,0,0,0,.48,0,.41.41,0,0,0,.36-.29.25.25,0,0,1,.1-.12.3.3,0,0,0,.17-.22l.08-.2.08-.18a1.34,1.34,0,0,0,.07-.25.45.45,0,0,0,0-.25.22.22,0,0,1,0-.17.59.59,0,0,0,.08-.23,2.13,2.13,0,0,0,0-.23,1.51,1.51,0,0,1,0-.2.59.59,0,0,1,.06-.18.23.23,0,0,0,0-.14l-.12-.38a.4.4,0,0,1,0-.31.62.62,0,0,0,0-.28c0-.09-.05-.18-.08-.28v0a.32.32,0,0,1-.2-.23,1.34,1.34,0,0,0-.11-.3A.36.36,0,0,0,85,89l-.1-.14a.63.63,0,0,0-.26-.43.5.5,0,0,1-.19-.13,1,1,0,0,0-.17-.16.35.35,0,0,0-.17-.1L84,87.94l0,0a.12.12,0,0,1,0-.06.59.59,0,0,0-.22-.26l-.29-.17a.25.25,0,0,1-.12-.1.94.94,0,0,0-.34-.22L82.79,87a.37.37,0,0,0-.14-.18.61.61,0,0,1-.17-.16.21.21,0,0,0-.14-.07c-.13,0-.19-.1-.19-.19a.61.61,0,0,0-.24-.31l-.18-.19a.71.71,0,0,1-.13-.22l0-.1a.39.39,0,0,0-.07-.1.74.74,0,0,1-.22-.38,1.83,1.83,0,0,0-.07-.25l-.1-.25a.37.37,0,0,1,0-.26A.66.66,0,0,0,81,84a.35.35,0,0,1,0-.29.34.34,0,0,0,0-.16.9.9,0,0,0,0-.16.36.36,0,0,1,0-.36.34.34,0,0,0,0-.14,1,1,0,0,1,0-.7.2.2,0,0,0,0-.14.79.79,0,0,1,0-.14,1.22,1.22,0,0,1,.1-.5,2.63,2.63,0,0,0,.08-.25,1.07,1.07,0,0,0,0-.28.53.53,0,0,1,0-.2l.08-.18a1.85,1.85,0,0,1,.41-.62.89.89,0,0,0,.16-.2l.13-.23a2,2,0,0,1,.58-.41,1.72,1.72,0,0,0,.48-.29l.22-.12a.39.39,0,0,1,.24,0,.43.43,0,0,0,.22-.07.3.3,0,0,1,.34,0,.4.4,0,0,0,.31,0,.43.43,0,0,1,.31,0,1,1,0,0,0,.41.07.26.26,0,0,1,.25,0l.2.18a.31.31,0,0,0,.12.11l.12.08c.08,0,.12.06.12.07l.17.19a.44.44,0,0,0,.19.14.07.07,0,0,1,0,0,1,1,0,0,0,.11.2.54.54,0,0,1,.08.2.13.13,0,0,0,0,.1.47.47,0,0,1,.11.23,2.1,2.1,0,0,1,0,.23.78.78,0,0,0,0,.24.34.34,0,0,1,0,.14.36.36,0,0,0,.07.34.16.16,0,0,1,0,.17.4.4,0,0,0,0,.31.62.62,0,0,1,0,.38l-.07.26a.49.49,0,0,1-.16.28.78.78,0,0,1-.28.13,3.84,3.84,0,0,1-.5.06,1.62,1.62,0,0,1-.5-.06.3.3,0,0,1-.24-.31,2.38,2.38,0,0,0,0-.49,1.66,1.66,0,0,1,0-.49.27.27,0,0,0,0-.12.77.77,0,0,1-.08-.17.42.42,0,0,0-.08-.14,1.13,1.13,0,0,0-.38-.31.31.31,0,0,0-.2,0,.38.38,0,0,1-.23,0,2.07,2.07,0,0,1-.34.16.66.66,0,0,0-.29.2l-.26.38-.13.22a1.44,1.44,0,0,0-.11.22.34.34,0,0,0,0,.29.29.29,0,0,1,0,.19.36.36,0,0,0,0,.34.6.6,0,0,1,0,.34v0a1.29,1.29,0,0,1,0,.35.69.69,0,0,0,0,.35.11.11,0,0,0,0,0,.17.17,0,0,1,0,.07,1,1,0,0,0,.1.34l.14.31a.52.52,0,0,0,.19.24l.12.1a1.3,1.3,0,0,0,.25.35l.3.3a.56.56,0,0,0,.14.1.57.57,0,0,1,.14.1,2,2,0,0,0,.74.6s.06,0,.1.07a1.24,1.24,0,0,0,.26.24,1.91,1.91,0,0,0,.31.17c.13.06.2.14.22.22l0,.1a.63.63,0,0,1,.16.17.38.38,0,0,0,.16.14,1.27,1.27,0,0,1,.24.26l.22.31a.48.48,0,0,1,.08.12.31.31,0,0,0,.11.12.35.35,0,0,1,.12.17l.19.47a4,4,0,0,1,.17.49l.19.79,0,0a.69.69,0,0,0,0,.38A.71.71,0,0,1,87.54,90.84Z" transform="translate(-16.42 1.1)"/><path class="cls-3" d="M103.26,91.42a1,1,0,0,1,0,.36,3.41,3.41,0,0,1-.07.36l-.12.77a1.47,1.47,0,0,1-.1.34,1.54,1.54,0,0,0-.12.38.63.63,0,0,1-.08.22l-.13.19a2.64,2.64,0,0,0-.2.34,1.61,1.61,0,0,1-.2.31l-.23.23-.23.23a1.1,1.1,0,0,1-.46.24.39.39,0,0,0-.22.12.43.43,0,0,1-.22.16l-.24.06-.32.08-.3.06-.23.1a.28.28,0,0,1-.23,0,1.15,1.15,0,0,0-.36,0,1.17,1.17,0,0,1-.36,0h-.1a1.08,1.08,0,0,1-.6,0l-.53-.22a.1.1,0,0,1-.07,0s0,0-.07,0a.14.14,0,0,1-.1,0l-.11-.13-.11-.11a1.13,1.13,0,0,1-.29-.7.32.32,0,0,0,0-.14.45.45,0,0,1,0-.24V94a2.27,2.27,0,0,0,0-.31.23.23,0,0,1,0-.19.31.31,0,0,0,0-.19,1.22,1.22,0,0,1,0-.53.19.19,0,0,0,0-.13.3.3,0,0,1,0-.11c0-.1,0-.19,0-.29a1.09,1.09,0,0,1,0-.29,2.22,2.22,0,0,0,0-.4c0-.14,0-.27,0-.4a.37.37,0,0,1,0-.22.12.12,0,0,0,0-.12.86.86,0,0,1-.06-.25q0-.13,0-.25a.11.11,0,0,0,0-.08.11.11,0,0,1,0-.08,0,0,0,0,1,0,0,0,0,0,0,0,0,0,.91.91,0,0,1,0-.3,1,1,0,0,0,0-.3V89a.13.13,0,0,1,0-.1.41.41,0,0,0,0-.1v-.22a.44.44,0,0,0,0-.19.29.29,0,0,1,0-.19.44.44,0,0,0,0-.24.29.29,0,0,1,0-.22.62.62,0,0,0,0-.22v-.17c0-.1,0-.19,0-.29s0-.2,0-.31v-.43a1.36,1.36,0,0,0-.07-.43V85.8a.91.91,0,0,0,.06-.25q0-.13,0-.25a1.35,1.35,0,0,1,0-.31,2.19,2.19,0,0,0,0-.32,2,2,0,0,1,0-.32v0a.57.57,0,0,1-.07-.42,3.62,3.62,0,0,0,.07-.42c0-.08,0-.16,0-.25s0-.17,0-.25V82c0-.18,0-.34,0-.5a1.93,1.93,0,0,1,.07-.5v-.12c0-.16,0-.32,0-.48a1.67,1.67,0,0,0-.07-.48.18.18,0,0,1,0-.18l.1-.18a.22.22,0,0,0,0-.17,1.17,1.17,0,0,1,0-.26.38.38,0,0,1,.14-.32.55.55,0,0,1,.34-.11h.14a1.52,1.52,0,0,1,.37,0h.37a1.36,1.36,0,0,0,.31,0,1.51,1.51,0,0,1,.32,0,1.46,1.46,0,0,0,.32,0,.67.67,0,0,1,.22,0l.22,0a.83.83,0,0,0,.29,0,.59.59,0,0,1,.29,0l.52.12a2.06,2.06,0,0,1,.49.22l.36.19a1,1,0,0,1,.36.34.78.78,0,0,0,.29.31.28.28,0,0,1,.14.18,1.44,1.44,0,0,0,.07.23.1.1,0,0,0,0,.07,1.09,1.09,0,0,1,.16.26l.13.29a0,0,0,0,0,0,0,.1.1,0,0,1,0,.06.34.34,0,0,0,0,.2l.08.18a.51.51,0,0,1,0,.36.45.45,0,0,0,0,.24.28.28,0,0,1,.06.2,2.11,2.11,0,0,0,0,.23l0,.28a2,2,0,0,0,.07.28.51.51,0,0,1,0,.46,1.44,1.44,0,0,0,0,.24,2.59,2.59,0,0,1-.12.72c0,.1-.06.2-.08.3s-.05.21-.08.32a1.09,1.09,0,0,1-.14.34,1.77,1.77,0,0,1-.22.26l-.26.43-.17.22-.14.22a.31.31,0,0,0,0,.38l.26.41.18.25.16.25a.51.51,0,0,0,.19.24.23.23,0,0,1,.07.17.34.34,0,0,0,0,.19l.1.14a.52.52,0,0,1,.1.19c0,.08,0,.16.06.24a.85.85,0,0,1,0,.24.35.35,0,0,0,.07.26.59.59,0,0,1,.07.26.27.27,0,0,1,0,.08.11.11,0,0,0,0,.08.68.68,0,0,1,0,.25v.28a1.24,1.24,0,0,0,0,.29,1.25,1.25,0,0,1,0,.38A1.22,1.22,0,0,0,103.26,91.42Zm-4.63-9.53a1.07,1.07,0,0,0,0,.4,3.49,3.49,0,0,1,0,.4c0,.22,0,.44,0,.65a6.06,6.06,0,0,0,0,.65,3,3,0,0,1,0,.38v.58a.71.71,0,0,0,.08.35,1.75,1.75,0,0,0,.2.3.25.25,0,0,0,.17.11l.22,0h.34a.81.81,0,0,0,.46-.14q.22-.17.41-.35a1.48,1.48,0,0,0,.31-.42.42.42,0,0,1,0-.12l.13-.19a.4.4,0,0,0,.06-.22.09.09,0,0,1,0-.06.09.09,0,0,0,0-.06l.08-.23a.45.45,0,0,0,0-.23V83.4a1.7,1.7,0,0,0-.12-.72.2.2,0,0,1,0-.19.66.66,0,0,0,0-.29,1,1,0,0,1-.11-.25.71.71,0,0,0-.13-.25.81.81,0,0,1-.12-.29l-.1-.17-.17-.11a.47.47,0,0,1-.12-.16l0,0-.22-.1-.19-.07-.23-.06a.27.27,0,0,0-.23,0,.06.06,0,0,1-.1,0,.38.38,0,0,0-.41.22,1.11,1.11,0,0,1-.12.22,1.52,1.52,0,0,0-.08.2.71.71,0,0,0,0,.23A1.24,1.24,0,0,1,98.63,81.89Zm2.62,9.62a1.52,1.52,0,0,0,0-.37v-.37c0-.16,0-.31,0-.46a1.36,1.36,0,0,0-.07-.43c0-.14-.09-.29-.13-.44a2,2,0,0,0-.18-.44,1.25,1.25,0,0,1-.12-.26.69.69,0,0,0-.17-.26l-.24-.23a2.36,2.36,0,0,0-.26-.2.77.77,0,0,0-.35-.14l-.37-.07a.17.17,0,0,0-.14,0,.17.17,0,0,0-.14.06A.53.53,0,0,1,99,88a.33.33,0,0,0-.16.18.71.71,0,0,0,0,.23,1.94,1.94,0,0,0,0,.36,2.65,2.65,0,0,0,0,.26c0,.1,0,.19,0,.29a5.16,5.16,0,0,0,0,.61q0,.3,0,.61a1.79,1.79,0,0,0,0,.22,1.61,1.61,0,0,1,0,.22,3.66,3.66,0,0,1,0,.42,1.25,1.25,0,0,0,0,.42.77.77,0,0,0,0,.12.77.77,0,0,1,0,.12,1.58,1.58,0,0,1,0,.28.35.35,0,0,0,0,.25v.58a.38.38,0,0,0,.31.36.14.14,0,0,1,.1,0,.58.58,0,0,0,.34.07l.16,0a.26.26,0,0,1,.16,0,.31.31,0,0,0,.17,0l.19-.1a.61.61,0,0,0,.31-.18l.24-.25a.82.82,0,0,0,.14-.29.65.65,0,0,1,.17-.29v0a.82.82,0,0,0,.08-.3.8.8,0,0,1,.08-.3l0-.12a.22.22,0,0,0,0-.17Z" transform="translate(-16.42 1.1)"/><path class="cls-3" d="M109.12,80.88a.56.56,0,0,0-.41.48c0,.08,0,.17-.06.26a1.22,1.22,0,0,0,0,.29.64.64,0,0,0,0,.19.41.41,0,0,1,0,.34,1,1,0,0,0,0,.36,1.31,1.31,0,0,1,0,.29,1.38,1.38,0,0,0,0,.26v.29a1.11,1.11,0,0,0,0,.38.24.24,0,0,1,0,.18.77.77,0,0,0,0,.2,1.32,1.32,0,0,0,0,.43,4,4,0,0,1,0,.43.28.28,0,0,0,0,.14.2.2,0,0,1,0,.12.29.29,0,0,0,0,.22.39.39,0,0,1,0,.22.79.79,0,0,0,0,.14.2.2,0,0,1,0,.14.35.35,0,0,0,0,.29.83.83,0,0,1,0,.34.9.9,0,0,0,0,.25q0,.13,0,.25a.53.53,0,0,0,.34.53l.13.06.11.06a.64.64,0,0,0,.24,0l.24,0h.07s0,0,.07,0a.82.82,0,0,0,.55,0,.38.38,0,0,1,.46.17,1,1,0,0,1,.07.18.33.33,0,0,1,0,.2.06.06,0,0,0,0,.1.42.42,0,0,1,0,.2l0,.2a1.07,1.07,0,0,0,0,.35,1.72,1.72,0,0,1,0,.35.27.27,0,0,1,0,.19.47.47,0,0,1-.18.23.48.48,0,0,1-.28,0,.84.84,0,0,0-.38,0h-.24a.5.5,0,0,0-.24,0,.87.87,0,0,1-.23.06.9.9,0,0,0-.23.06.81.81,0,0,0-.5.65.24.24,0,0,0,0,.08.28.28,0,0,1,0,.08,1.22,1.22,0,0,1,0,.3,1.22,1.22,0,0,0,0,.3.21.21,0,0,1,0,.1l0,.19a.35.35,0,0,0,0,.22.21.21,0,0,1,0,.1.4.4,0,0,0,0,.34.25.25,0,0,1,0,.22.47.47,0,0,0,0,.34.15.15,0,0,1,0,.11.15.15,0,0,0,0,.11.32.32,0,0,0,.13.17l.2.1a.34.34,0,0,0,.19,0,.22.22,0,0,1,.24,0,.33.33,0,0,0,.24.07.42.42,0,0,1,.17,0,.42.42,0,0,0,.17,0,.21.21,0,0,1,.22,0,.93.93,0,0,0,.3,0l.3,0a.7.7,0,0,1,.23,0l.23.06s.07,0,.07,0l.1.14a.29.29,0,0,1,0,.17,2.61,2.61,0,0,1,0,.28.76.76,0,0,1,0,.3.68.68,0,0,0,0,.36.64.64,0,0,1-.19.58.37.37,0,0,1-.26.07H111a.13.13,0,0,0-.12,0,.13.13,0,0,1-.1,0h-.19a.72.72,0,0,0-.32,0,.34.34,0,0,1-.3,0,.35.35,0,0,0-.29,0l-.38,0a.16.16,0,0,1-.12,0,1.09,1.09,0,0,0-.46,0,.28.28,0,0,1-.19,0l-.19,0a.32.32,0,0,0-.14,0,.24.24,0,0,1-.17,0h-.16a.22.22,0,0,0-.16,0,.27.27,0,0,1-.29,0,.27.27,0,0,0-.16-.08l-.16,0a.58.58,0,0,1-.41-.43l0-.31a3,3,0,0,0-.07-.31v-.07a1,1,0,0,0,0-.43,1.86,1.86,0,0,1,0-.41.7.7,0,0,0,0-.13.16.16,0,0,1,0-.11s0-.08,0-.1a.53.53,0,0,1-.06-.29c0-.1,0-.2,0-.31a1,1,0,0,0,0-.26v-.31a2.13,2.13,0,0,1,0-.31V91.9a.3.3,0,0,1,0-.24.39.39,0,0,0,0-.23,1.52,1.52,0,0,0-.07-.23.59.59,0,0,1,0-.23.45.45,0,0,1,.07-.23.66.66,0,0,0,0-.29l-.07-.41a.24.24,0,0,1,0-.08.27.27,0,0,0,0-.08.54.54,0,0,0,0-.25.53.53,0,0,1,0-.25l0,0c-.08-.08-.11-.15-.1-.22a1.6,1.6,0,0,1,.07-.22.87.87,0,0,0,0-.24,2.9,2.9,0,0,1,0-.35v-.49a.34.34,0,0,1,0-.29q0-.12,0-.25c0-.09,0-.17,0-.25a.38.38,0,0,1,0-.34.29.29,0,0,0,0-.19v-.17a1.23,1.23,0,0,0,0-.37,2.17,2.17,0,0,0-.06-.37.32.32,0,0,1,0-.23.33.33,0,0,0,0-.23.14.14,0,0,1,0-.1.63.63,0,0,0,0-.43v-.07a.94.94,0,0,0,0-.36l0-.34a.92.92,0,0,1,0-.44,1.06,1.06,0,0,0,0-.42q0-.12,0-.25a1,1,0,0,1,0-.28v0a.52.52,0,0,1,0-.3,1.91,1.91,0,0,1,.07-.28.09.09,0,0,1,0-.06s0,0,0-.06a.69.69,0,0,1,0-.22.3.3,0,0,0-.08-.22.21.21,0,0,1,0-.17,1.53,1.53,0,0,0,.1-.29,1.61,1.61,0,0,0,0-.38v-.38a.71.71,0,0,1,0-.22,1.65,1.65,0,0,1,.16-.42,1.2,1.2,0,0,1,.28-.35,1.49,1.49,0,0,1,.35-.26.79.79,0,0,1,.44-.07.26.26,0,0,0,.19-.07.47.47,0,0,1,.36,0,.11.11,0,0,0,.12,0,1,1,0,0,1,.36,0,.31.31,0,0,0,.17,0l.17,0,.53-.07h0a.32.32,0,0,0,.19,0,.33.33,0,0,1,.19,0,.59.59,0,0,0,.38,0,.22.22,0,0,1,.24,0,.26.26,0,0,0,.24.07.36.36,0,0,1,.46.24.77.77,0,0,1,0,.19.32.32,0,0,0,0,.14,1.31,1.31,0,0,1,0,.29.81.81,0,0,1,0,.28.69.69,0,0,0,0,.25.36.36,0,0,1,0,.13l0,.13a.38.38,0,0,1-.43.29,1,1,0,0,0-.43.12l-.19,0a.38.38,0,0,1-.17,0,.41.41,0,0,0-.26,0,.51.51,0,0,1-.19,0,.14.14,0,0,0-.1,0,.21.21,0,0,1-.17.1l-.17,0a.37.37,0,0,0-.22,0A.16.16,0,0,1,109.12,80.88Z" transform="translate(-16.42 1.1)"/><path class="cls-3" d="M121.19,90.84a1,1,0,0,1,0,.62.55.55,0,0,1,0,.28,1.34,1.34,0,0,1-.07.25,1.11,1.11,0,0,0,0,.2v.2a1.05,1.05,0,0,1,0,.17s0,.1,0,.17A1.82,1.82,0,0,0,121,93a.84.84,0,0,0,0,.29.22.22,0,0,1,0,.17.54.54,0,0,0-.1.19l0,.19a.82.82,0,0,1-.06.17l-.08.14c-.06.11-.13.21-.19.3a2,2,0,0,0-.17.28,2.66,2.66,0,0,1-.43.5l-.17.14c-.06.1-.13.14-.19.14a.28.28,0,0,0-.18,0l-.11.1a.69.69,0,0,1-.14.12l-.44.1a2.2,2.2,0,0,0-.44.14.13.13,0,0,1-.11,0L118,96a.17.17,0,0,0-.14,0,.55.55,0,0,1-.28,0l-.25-.07-.31-.11a.66.66,0,0,0-.34,0s-.1,0-.17-.07a.46.46,0,0,0-.19-.18l-.24-.13-.1-.07-.1-.07,0,0a.46.46,0,0,1-.24-.22,1.62,1.62,0,0,0-.17-.26s-.06,0-.07,0a.21.21,0,0,1-.19-.24l-.07-.19a1.11,1.11,0,0,1-.19-.5.14.14,0,0,0,0-.1,1.41,1.41,0,0,1-.07-.23,1.64,1.64,0,0,0-.07-.23.78.78,0,0,1,0-.24v-.12a.53.53,0,0,1-.1-.3v-.35a2,2,0,0,0,0-.36.57.57,0,0,1,0-.26c0-.1,0-.18,0-.26l0-.2a.42.42,0,0,0,0-.2.26.26,0,0,1,0-.24,1,1,0,0,1,.06-.14l.08-.14a.26.26,0,0,1,.26-.17h.53l.2,0a.42.42,0,0,0,.2,0,.1.1,0,0,1,.07,0l.07,0,.19.28a.38.38,0,0,1,0,.32.71.71,0,0,0,0,.23.73.73,0,0,1,0,.23v.07a.92.92,0,0,0,0,.44l.11.4a.15.15,0,0,0,0,.07.17.17,0,0,1,0,.07c0,.13.06.24.1.34a.29.29,0,0,1,.07.22.75.75,0,0,0,.13.32.5.5,0,0,0,.28.2l.11.07a.24.24,0,0,0,.16,0l.24.07h.24a1.22,1.22,0,0,0,.48,0,.41.41,0,0,0,.36-.29.25.25,0,0,1,.1-.12A.3.3,0,0,0,119,93l.08-.2.08-.18a1.34,1.34,0,0,0,.07-.25.45.45,0,0,0,0-.25.22.22,0,0,1,0-.17.59.59,0,0,0,.08-.23,2.13,2.13,0,0,0,0-.23,1.51,1.51,0,0,1,0-.2.59.59,0,0,1,.06-.18.23.23,0,0,0,0-.14l-.12-.38a.4.4,0,0,1,0-.31.62.62,0,0,0,0-.28c0-.09-.05-.18-.08-.28v0a.32.32,0,0,1-.2-.23,1.34,1.34,0,0,0-.11-.3.36.36,0,0,0-.12-.19l-.1-.14a.63.63,0,0,0-.26-.43.5.5,0,0,1-.19-.13,1,1,0,0,0-.17-.16.35.35,0,0,0-.17-.1l-.19-.07,0,0a.12.12,0,0,1,0-.06.59.59,0,0,0-.22-.26l-.29-.17a.25.25,0,0,1-.12-.1.94.94,0,0,0-.34-.22l-.12-.07a.37.37,0,0,0-.14-.18.61.61,0,0,1-.17-.16.21.21,0,0,0-.14-.07c-.13,0-.19-.1-.19-.19a.61.61,0,0,0-.24-.31l-.18-.19a.71.71,0,0,1-.13-.22l0-.1a.39.39,0,0,0-.07-.1.74.74,0,0,1-.22-.38,1.83,1.83,0,0,0-.07-.25l-.1-.25a.37.37,0,0,1,0-.26.66.66,0,0,0,0-.34.35.35,0,0,1,0-.29.34.34,0,0,0,0-.16.9.9,0,0,0,0-.16.36.36,0,0,1,0-.36.34.34,0,0,0,0-.14,1,1,0,0,1,0-.7.2.2,0,0,0,0-.14.79.79,0,0,1,0-.14,1.22,1.22,0,0,1,.1-.5,2.63,2.63,0,0,0,.08-.25,1.07,1.07,0,0,0,0-.28.53.53,0,0,1,0-.2l.08-.18a1.85,1.85,0,0,1,.41-.62.89.89,0,0,0,.16-.2l.13-.23a2,2,0,0,1,.58-.41,1.72,1.72,0,0,0,.48-.29l.22-.12a.39.39,0,0,1,.24,0,.43.43,0,0,0,.22-.07.3.3,0,0,1,.34,0,.4.4,0,0,0,.31,0,.43.43,0,0,1,.31,0,1,1,0,0,0,.41.07.26.26,0,0,1,.25,0l.2.18a.31.31,0,0,0,.12.11l.12.08c.08,0,.12.06.12.07l.17.19a.44.44,0,0,0,.19.14.07.07,0,0,1,0,0,1,1,0,0,0,.11.2.54.54,0,0,1,.08.2.13.13,0,0,0,0,.1.47.47,0,0,1,.11.23,2.1,2.1,0,0,1,0,.23.78.78,0,0,0,0,.24.34.34,0,0,1,0,.14.36.36,0,0,0,.07.34.16.16,0,0,1,0,.17.4.4,0,0,0,0,.31.62.62,0,0,1,0,.38l-.07.26a.49.49,0,0,1-.16.28.78.78,0,0,1-.28.13,3.84,3.84,0,0,1-.5.06,1.62,1.62,0,0,1-.5-.06.3.3,0,0,1-.24-.31,2.38,2.38,0,0,0,0-.49,1.66,1.66,0,0,1,0-.49.27.27,0,0,0,0-.12.77.77,0,0,1-.08-.17.42.42,0,0,0-.08-.14,1.13,1.13,0,0,0-.38-.31.31.31,0,0,0-.2,0,.38.38,0,0,1-.23,0,2.07,2.07,0,0,1-.34.16.66.66,0,0,0-.29.2l-.26.38-.13.22a1.44,1.44,0,0,0-.11.22.34.34,0,0,0,0,.29.29.29,0,0,1,0,.19.36.36,0,0,0,0,.34.6.6,0,0,1,0,.34v0a1.29,1.29,0,0,1,0,.35.69.69,0,0,0,0,.35.11.11,0,0,0,0,0,.17.17,0,0,1,0,.07,1,1,0,0,0,.1.34l.14.31a.52.52,0,0,0,.19.24l.12.1a1.3,1.3,0,0,0,.25.35l.3.3a.56.56,0,0,0,.14.1.57.57,0,0,1,.14.1,2,2,0,0,0,.74.6s.06,0,.1.07a1.24,1.24,0,0,0,.26.24,1.91,1.91,0,0,0,.31.17c.13.06.2.14.22.22l0,.1a.63.63,0,0,1,.16.17.38.38,0,0,0,.16.14,1.27,1.27,0,0,1,.24.26l.22.31a.48.48,0,0,1,.08.12.31.31,0,0,0,.11.12.35.35,0,0,1,.12.17l.19.47a4,4,0,0,1,.17.49l.19.79,0,0a.69.69,0,0,0,0,.38A.71.71,0,0,1,121.19,90.84Z" transform="translate(-16.42 1.1)"/><path class="cls-3" d="M129.95,79.66a.57.57,0,0,0,0,.11.58.58,0,0,1,0,.11.68.68,0,0,1-.34.7.16.16,0,0,1-.12,0l-.12,0a.64.64,0,0,1-.24,0h-.24a1.27,1.27,0,0,0-.3,0h-.3a.25.25,0,0,0-.22.1.91.91,0,0,1-.24.17.45.45,0,0,0-.22.31c0,.13,0,.25,0,.37s0,.24,0,.37a.12.12,0,0,0,0,.14.31.31,0,0,1,0,.29.28.28,0,0,0,0,.19.41.41,0,0,1,0,.38.2.2,0,0,0,0,.22,1.57,1.57,0,0,1,0,.38l-.07.48a.49.49,0,0,0,0,.24,2.23,2.23,0,0,0,0,.24,2.13,2.13,0,0,0,0,.23,2.1,2.1,0,0,1,0,.23.65.65,0,0,0,0,.29.34.34,0,0,1,0,.19,1.64,1.64,0,0,1,0,.19v.17a.58.58,0,0,1,0,.36.36.36,0,0,0,0,.34.17.17,0,0,1,0,.14,2.25,2.25,0,0,0,0,.24.5.5,0,0,0,0,.24v0a.55.55,0,0,0,0,.28l0,.28a.3.3,0,0,1,0,.26.23.23,0,0,0,0,.17.9.9,0,0,1,0,.25.83.83,0,0,0,0,.25.62.62,0,0,1,0,.24,1.18,1.18,0,0,0,0,.24.1.1,0,0,1,0,.06.05.05,0,0,0,0,0,.2.2,0,0,1,0,.18.63.63,0,0,0,0,.18.41.41,0,0,1,0,.1.14.14,0,0,0,0,.1.88.88,0,0,1,0,.58.11.11,0,0,0,0,.12.59.59,0,0,1,0,.41.44.44,0,0,0,0,.29,1,1,0,0,1,.06.2,1.5,1.5,0,0,1,0,.2l0,.29a2,2,0,0,0,0,.31V93a1,1,0,0,0,.1.46.26.26,0,0,1,0,.31.35.35,0,0,0,0,.14c0,.1,0,.2,0,.3a.76.76,0,0,0,0,.3.41.41,0,0,1,0,.31.5.5,0,0,0,0,.24.8.8,0,0,1,0,.24v.31a.25.25,0,0,1-.19.24l-.12,0a.16.16,0,0,0-.12,0,.31.31,0,0,1-.29,0,.28.28,0,0,0-.22,0,.93.93,0,0,1-.26,0,1.1,1.1,0,0,0-.29,0,.31.31,0,0,1-.31-.07.66.66,0,0,1-.17-.31l-.07-.41a.76.76,0,0,1,0-.18.31.31,0,0,1,.07-.18s0-.06,0-.12a.59.59,0,0,1,0-.29,1,1,0,0,0,0-.31,1,1,0,0,1,0-.16.22.22,0,0,0,0-.16.33.33,0,0,1,0-.14,2.36,2.36,0,0,0,0-.47v-.47a1.28,1.28,0,0,1,0-.3,1.27,1.27,0,0,0,0-.3,1.2,1.2,0,0,1,0-.48,1.76,1.76,0,0,0,0-.5v-.17a1,1,0,0,1,0-.36.42.42,0,0,0,0-.17.82.82,0,0,1,0-.55.22.22,0,0,0,0-.14.31.31,0,0,1,0-.24.67.67,0,0,0,0-.28,1.27,1.27,0,0,0-.06-.28.2.2,0,0,1,0-.19.35.35,0,0,0,.06-.22,1.79,1.79,0,0,1,0-.22,2.29,2.29,0,0,0-.07-.55v-.12a1,1,0,0,0,.07-.36v-.36a4.73,4.73,0,0,0,0-.58,4.54,4.54,0,0,1,0-.58,3.07,3.07,0,0,0,0-.47,1.3,1.3,0,0,1,0-.47.4.4,0,0,0,0-.17.26.26,0,0,1,0-.26.43.43,0,0,0,.07-.26l-.07-.82V83a1.2,1.2,0,0,0,0-.53v-.26a2,2,0,0,0,0-.48c0-.16,0-.32,0-.48a.55.55,0,0,0-.22-.46.77.77,0,0,0-.48-.24l-.29-.07-.18,0a.4.4,0,0,0-.18,0,.37.37,0,0,1-.26,0,1.5,1.5,0,0,0-.29-.1.4.4,0,0,1-.26-.36,1.3,1.3,0,0,0,0-.18,1.32,1.32,0,0,1,0-.18.52.52,0,0,0,0-.12.35.35,0,0,1,0-.1.59.59,0,0,1,.14-.53s0,0,0,0a1.18,1.18,0,0,0,.28-.13.36.36,0,0,1,.3,0,.89.89,0,0,0,.35,0l.35-.07a.35.35,0,0,1,.29,0,.75.75,0,0,0,.38,0l.29,0a.49.49,0,0,1,.29,0,.67.67,0,0,0,.43,0,.85.85,0,0,1,.24,0l.24,0a.64.64,0,0,1,.24,0,.18.18,0,0,0,.17,0l.17-.06h.19a1,1,0,0,1,.25,0,.38.38,0,0,0,.25,0,1.17,1.17,0,0,1,.32,0,1.44,1.44,0,0,1,.35,0,.55.55,0,0,0,.36,0,.49.49,0,0,1,.24,0l.24.06q.1,0,.14.12a.61.61,0,0,1,.07.14.39.39,0,0,1,0,.19,1.05,1.05,0,0,0,0,.17S129.93,79.59,129.95,79.66Z" transform="translate(-16.42 1.1)"/><path class="cls-3" d="M50.55,113.84a.94.94,0,0,1,0,.62.55.55,0,0,1,0,.28,1.34,1.34,0,0,1-.07.25,1.06,1.06,0,0,0,0,.2v.2a1,1,0,0,1,0,.17s0,.1,0,.17a1.83,1.83,0,0,0-.07.29.86.86,0,0,0,0,.29.22.22,0,0,1,0,.17.55.55,0,0,0-.1.19l0,.19a.82.82,0,0,1-.06.17l-.08.14a3.34,3.34,0,0,1-.19.3,2,2,0,0,0-.17.28,2.69,2.69,0,0,1-.43.5l-.17.14c-.06.1-.13.14-.19.14a.28.28,0,0,0-.18,0l-.11.1a.7.7,0,0,1-.14.12l-.44.1a2.18,2.18,0,0,0-.44.14.13.13,0,0,1-.11,0l-.11,0a.17.17,0,0,0-.14,0,.55.55,0,0,1-.28,0l-.25-.07-.31-.11a.66.66,0,0,0-.34,0s-.1,0-.17-.07a.47.47,0,0,0-.19-.18l-.24-.13-.1-.07-.1-.07,0,0A.46.46,0,0,1,45,118a1.53,1.53,0,0,0-.17-.26s-.06,0-.07,0a.21.21,0,0,1-.19-.24l-.07-.19a1.1,1.1,0,0,1-.19-.5.14.14,0,0,0,0-.1,1.42,1.42,0,0,1-.07-.23,1.51,1.51,0,0,0-.07-.23.79.79,0,0,1,0-.24v-.12a.53.53,0,0,1-.1-.3v-.35a2,2,0,0,0,0-.36.57.57,0,0,1,0-.26q0-.14,0-.26c0-.08,0-.15,0-.2a.41.41,0,0,0,0-.2.26.26,0,0,1,0-.24,1.08,1.08,0,0,1,.06-.14l.08-.14a.26.26,0,0,1,.26-.17h.53l.2,0a.42.42,0,0,0,.2,0,.1.1,0,0,1,.07,0l.07,0,.19.28a.37.37,0,0,1,0,.32.72.72,0,0,0,0,.23.72.72,0,0,1,0,.23v.07a.92.92,0,0,0,0,.44q.06.2.11.4a.16.16,0,0,0,0,.07.17.17,0,0,1,0,.07c0,.13.06.24.1.34a.29.29,0,0,1,.07.22.75.75,0,0,0,.13.32.5.5,0,0,0,.28.2l.11.07a.24.24,0,0,0,.16,0l.24.07h.24a1.22,1.22,0,0,0,.48,0,.41.41,0,0,0,.36-.29.26.26,0,0,1,.1-.12.3.3,0,0,0,.17-.22l.08-.2.08-.18a1.34,1.34,0,0,0,.07-.25.45.45,0,0,0,0-.25.22.22,0,0,1,0-.17.58.58,0,0,0,.08-.23,2.13,2.13,0,0,0,0-.23,1.43,1.43,0,0,1,0-.2.59.59,0,0,1,.06-.18.23.23,0,0,0,0-.14l-.12-.38a.4.4,0,0,1,0-.31.65.65,0,0,0,0-.28l-.08-.28v0a.32.32,0,0,1-.2-.23,1.34,1.34,0,0,0-.11-.3.36.36,0,0,0-.12-.19l-.1-.14a.64.64,0,0,0-.26-.43.49.49,0,0,1-.19-.13,1,1,0,0,0-.17-.16.36.36,0,0,0-.17-.1l-.19-.07,0,0a.12.12,0,0,1,0-.06.59.59,0,0,0-.22-.26l-.29-.17a.25.25,0,0,1-.12-.1.94.94,0,0,0-.34-.22l-.12-.07a.36.36,0,0,0-.14-.18.61.61,0,0,1-.17-.16.21.21,0,0,0-.14-.07c-.13,0-.19-.1-.19-.19a.62.62,0,0,0-.24-.31l-.18-.19a.73.73,0,0,1-.13-.22l0-.1a.38.38,0,0,0-.07-.1.74.74,0,0,1-.22-.38,1.82,1.82,0,0,0-.07-.25l-.1-.25a.38.38,0,0,1,0-.26.66.66,0,0,0,0-.34.35.35,0,0,1,0-.29.34.34,0,0,0,0-.16.9.9,0,0,0,0-.16.36.36,0,0,1,0-.36.33.33,0,0,0,0-.14,1,1,0,0,1,0-.7.2.2,0,0,0,0-.14.84.84,0,0,1,0-.14,1.23,1.23,0,0,1,.1-.5,2.27,2.27,0,0,0,.08-.25,1,1,0,0,0,0-.28.52.52,0,0,1,0-.2l.08-.18a1.84,1.84,0,0,1,.41-.62.91.91,0,0,0,.16-.2l.13-.23a2,2,0,0,1,.58-.41,1.74,1.74,0,0,0,.48-.29l.22-.12a.39.39,0,0,1,.24,0,.43.43,0,0,0,.22-.07.3.3,0,0,1,.34,0,.4.4,0,0,0,.31,0,.43.43,0,0,1,.31,0,1,1,0,0,0,.41.07.26.26,0,0,1,.25,0l.2.18a.3.3,0,0,0,.12.11l.12.08c.08,0,.12.06.12.07l.17.19a.44.44,0,0,0,.19.14.07.07,0,0,1,0,0,1,1,0,0,0,.11.2.54.54,0,0,1,.08.2.13.13,0,0,0,0,.1.46.46,0,0,1,.11.23,2.09,2.09,0,0,1,0,.23.78.78,0,0,0,0,.24.34.34,0,0,1,0,.14.36.36,0,0,0,.07.34.16.16,0,0,1,0,.17.4.4,0,0,0,0,.31.62.62,0,0,1,0,.38l-.07.26a.48.48,0,0,1-.16.28.78.78,0,0,1-.28.13,3.86,3.86,0,0,1-.5.06,1.62,1.62,0,0,1-.5-.06.3.3,0,0,1-.24-.31,2.41,2.41,0,0,0,0-.49,1.64,1.64,0,0,1,0-.49.27.27,0,0,0,0-.12.79.79,0,0,1-.08-.17.41.41,0,0,0-.08-.14,1.14,1.14,0,0,0-.38-.31.3.3,0,0,0-.2,0,.38.38,0,0,1-.23,0,2.07,2.07,0,0,1-.34.16.66.66,0,0,0-.29.2l-.26.38-.13.22a1.39,1.39,0,0,0-.11.22.34.34,0,0,0,0,.29.29.29,0,0,1,0,.19.36.36,0,0,0,0,.34.59.59,0,0,1,0,.34v0a1.29,1.29,0,0,1,0,.35.69.69,0,0,0,0,.35.11.11,0,0,0,0,0,.17.17,0,0,1,0,.07,1,1,0,0,0,.1.34l.14.31a.52.52,0,0,0,.19.24l.12.1a1.3,1.3,0,0,0,.25.35l.3.3a.55.55,0,0,0,.14.1.56.56,0,0,1,.14.1,2,2,0,0,0,.74.6s.06,0,.1.07a1.23,1.23,0,0,0,.26.24,1.88,1.88,0,0,0,.31.17c.13.06.2.14.22.22l0,.1a.65.65,0,0,1,.16.17.38.38,0,0,0,.16.14,1.25,1.25,0,0,1,.24.26l.22.31a.45.45,0,0,1,.08.12.31.31,0,0,0,.11.12.35.35,0,0,1,.12.17l.19.47a4.06,4.06,0,0,1,.17.49l.19.79,0,0a.69.69,0,0,0,0,.38A.7.7,0,0,1,50.55,113.84Z" transform="translate(-16.42 1.1)"/><path class="cls-3" d="M63.7,102.23a2.63,2.63,0,0,1,0,.43c0,.14,0,.29-.06.43a.16.16,0,0,1,0,.07.17.17,0,0,0,0,.07,1.13,1.13,0,0,1,0,.4,3.31,3.31,0,0,1-.12.4.72.72,0,0,0,0,.22c0,.18,0,.34,0,.49a2.56,2.56,0,0,1-.1.47,2,2,0,0,0,0,.6.43.43,0,0,1,0,.2c0,.06,0,.12-.07.2l0,.18a.32.32,0,0,0,0,.2.19.19,0,0,1,0,.13.35.35,0,0,0,0,.13A6.44,6.44,0,0,0,63,108a.61.61,0,0,0,0,.2,1.51,1.51,0,0,1,0,.2.8.8,0,0,1,0,.38,1.17,1.17,0,0,0-.07.17.53.53,0,0,0,0,.17l0,.31a1,1,0,0,0,0,.31v0a1.06,1.06,0,0,0-.12.48,1.9,1.9,0,0,1-.07.5.7.7,0,0,0,0,.26v.26a3,3,0,0,0,0,.37.83.83,0,0,1-.1.37.16.16,0,0,0,0,.19,2.37,2.37,0,0,1-.07.58,2.4,2.4,0,0,0,0,.24,2.33,2.33,0,0,0,0,.24,1.22,1.22,0,0,1,0,.24.46.46,0,0,1-.07.24.27.27,0,0,0,0,.12.09.09,0,0,0,0,.06s0,0,0,.06a.87.87,0,0,0-.06.24,2.33,2.33,0,0,0,0,.24.53.53,0,0,1,0,.28A1.51,1.51,0,0,0,62,115a.05.05,0,0,1,0,0,0,0,0,0,0,0,0,1.17,1.17,0,0,1,0,.44,2.42,2.42,0,0,0-.08.42.52.52,0,0,0,0,.31.74.74,0,0,1,0,.22.88.88,0,0,0-.06.25c0,.09,0,.17,0,.25a1.3,1.3,0,0,1,0,.29,1.09,1.09,0,0,0-.07.38,1.56,1.56,0,0,1,0,.38.29.29,0,0,0,0,.14.29.29,0,0,1,0,.14.65.65,0,0,1-.19.41.58.58,0,0,1-.43.17H60c-.16,0-.26-.1-.31-.29a.2.2,0,0,1-.06-.11.22.22,0,0,0-.06-.11.05.05,0,0,0,0,0,0,0,0,0,1,0,0c0-.22-.07-.44-.12-.65s-.09-.42-.12-.65a0,0,0,0,0,0,0,0,0,0,0,1,0,0,.32.32,0,0,0,0-.29.6.6,0,0,1,0-.26,1,1,0,0,0,0-.5.9.9,0,0,1-.06-.26,1.23,1.23,0,0,0-.06-.29.06.06,0,0,1,0-.1,1.81,1.81,0,0,0,0-.22c0-.06,0-.14,0-.22a.62.62,0,0,1,0-.19,1.14,1.14,0,0,0-.07-.41.53.53,0,0,1,0-.26.75.75,0,0,0-.07-.34.41.41,0,0,1,0-.12.56.56,0,0,0,0-.32,2.18,2.18,0,0,1-.07-.3l0-.31a1.88,1.88,0,0,0-.07-.29.64.64,0,0,1,0-.38v-.1c0-.1-.06-.2-.08-.3a1,1,0,0,0-.11-.28c0-.1-.09-.14-.17-.14a.06.06,0,0,0-.06,0,.48.48,0,0,1,0,.1,1.64,1.64,0,0,0-.06.32,1.26,1.26,0,0,1-.06.3,1.67,1.67,0,0,0-.1.58l-.07.29a3.53,3.53,0,0,0-.11.47,2.2,2.2,0,0,1-.13.47l0,.12a.15.15,0,0,0,0,.12.72.72,0,0,1,0,.31l0,.29a.35.35,0,0,1-.07.22s0,0,0,0a.75.75,0,0,1-.06.29.81.81,0,0,0-.06.31v.23a.62.62,0,0,1,0,.23.33.33,0,0,0,0,.16,1.13,1.13,0,0,1,0,.16l0,.26a1.37,1.37,0,0,1-.07.24.28.28,0,0,0,0,.16.5.5,0,0,1,0,.16,2.32,2.32,0,0,0,0,.25.86.86,0,0,0,0,.25,1.14,1.14,0,0,1,0,.46l-.22.65a.41.41,0,0,1-.38.31l-.42,0a1.52,1.52,0,0,1-.42,0,.79.79,0,0,1-.22,0,.44.44,0,0,1-.26-.36A.76.76,0,0,0,55,118a.72.72,0,0,1,0-.22.7.7,0,0,0,0-.48,1.72,1.72,0,0,1,0-.55.39.39,0,0,0,0-.22.9.9,0,0,1-.07-.36,2.29,2.29,0,0,0,0-.47,1.62,1.62,0,0,1,0-.49.33.33,0,0,0,0-.22.85.85,0,0,1-.06-.22c0-.06,0-.14,0-.22s0-.29,0-.43,0-.3,0-.46a.49.49,0,0,1,0-.16.28.28,0,0,0,0-.16.27.27,0,0,1,0-.19,1.06,1.06,0,0,0,0-.43v-.14a1.28,1.28,0,0,0,0-.49,2.85,2.85,0,0,0-.14-.47.41.41,0,0,1,0-.17,3,3,0,0,1,0-.37v-.37s0-.05,0-.06a0,0,0,0,1,0,0,1.61,1.61,0,0,1-.07-.22.35.35,0,0,1,0-.22.42.42,0,0,0,0-.26,2.09,2.09,0,0,0-.08-.26,1.67,1.67,0,0,1-.07-.48,1.79,1.79,0,0,0,0-.22,1.68,1.68,0,0,1,0-.22c0-.16-.06-.31-.07-.46l0-.46a1.62,1.62,0,0,0,0-.26,1.6,1.6,0,0,1,0-.26.75.75,0,0,0,0-.3l-.08-.28v0a1.53,1.53,0,0,0,0-.5,3.3,3.3,0,0,1-.08-.48,2.26,2.26,0,0,1,0-.32.93.93,0,0,0,0-.3.17.17,0,0,0,0-.07.1.1,0,0,1,0,0,.48.48,0,0,1-.07-.41.75.75,0,0,0,0-.26,1.27,1.27,0,0,0-.07-.26l0-.23a1,1,0,0,1,0-.23v-.26a.7.7,0,0,0,0-.26.11.11,0,0,1,0-.11.57.57,0,0,0,0-.11q0-.19,0-.38a2.18,2.18,0,0,0-.06-.38.33.33,0,0,1,0-.3.37.37,0,0,1,.25-.13h.22a1.09,1.09,0,0,1,.46,0,2,2,0,0,0,.43,0s.06,0,.1.1a4.36,4.36,0,0,1,.17.62,1.14,1.14,0,0,1,0,.31,1.13,1.13,0,0,0,0,.31,1,1,0,0,1,0,.17.38.38,0,0,0,.06.17.25.25,0,0,1,0,.24,1.8,1.8,0,0,0,0,.34,1.29,1.29,0,0,1,.07.26,1.73,1.73,0,0,1,0,.29c0,.1,0,.19,0,.28a.88.88,0,0,0,.06.25.63.63,0,0,1,0,.43,1.67,1.67,0,0,0,.1.58.75.75,0,0,1,0,.31.49.49,0,0,0,0,.22,1.59,1.59,0,0,0,.07.22.46.46,0,0,1,0,.24.41.41,0,0,0,0,.17.92.92,0,0,1,.06.22c0,.06,0,.14,0,.22l.17.62.1.53.1.53a1.19,1.19,0,0,1,0,.32.94.94,0,0,0,0,.3,2.1,2.1,0,0,1,.07.2c0,.06,0,.12,0,.2s.08.07.1.07.13,0,.14-.07l.14-.35a.74.74,0,0,0,0-.37,1,1,0,0,1,0-.25.54.54,0,0,0,0-.25,0,0,0,0,1,0,0,0,0,0,0,0,0,0,.94.94,0,0,0,.14-.38,3.16,3.16,0,0,0,0-.38c0-.13,0-.25,0-.36a1,1,0,0,1,.08-.34.34.34,0,0,0,0-.19,1.71,1.71,0,0,1,0-.22c0-.06,0-.14,0-.22a1.91,1.91,0,0,0,.07-.29,1,1,0,0,0,0-.31.59.59,0,0,1,0-.29l.1-.29a.87.87,0,0,0,0-.34,1.15,1.15,0,0,1,.1-.58.17.17,0,0,1,0-.07.16.16,0,0,0,0-.07,2.06,2.06,0,0,1,0-.38c0-.13,0-.25.06-.38a.41.41,0,0,1,0-.17.14.14,0,0,0,0-.1,1.3,1.3,0,0,1,0-.31,3,3,0,0,0,.06-.31q0-.19.08-.36c0-.11,0-.23.06-.36l0-.19a.29.29,0,0,1,.24-.29.86.86,0,0,1,.26,0l.29,0,.29,0a.11.11,0,0,1,.12.1l.1.28a.81.81,0,0,1,0,.28v0a2.52,2.52,0,0,1,.14.66,4.75,4.75,0,0,0,.1.66q0,.26.07.5l0,.5a1.3,1.3,0,0,0,.1.53.1.1,0,0,1,0,.07,2.4,2.4,0,0,0,.08.42,1.47,1.47,0,0,1,.06.42.41.41,0,0,0,0,.17,3.09,3.09,0,0,1,.1.52l0,.52a5.86,5.86,0,0,0,.12.59,5.94,5.94,0,0,1,.12.59,1.06,1.06,0,0,0,.06.36q.06.17.11.36a.89.89,0,0,1,0,.29.72.72,0,0,0,0,.22,1.44,1.44,0,0,0,.12.41.17.17,0,0,0,.14.14.08.08,0,0,0,.07,0l.07-.08a.84.84,0,0,0,.17-.31,2.34,2.34,0,0,0,.07-.36.14.14,0,0,1,0-.1,2.44,2.44,0,0,0,.12-.82.82.82,0,0,1,0-.24.84.84,0,0,0,0-.24,1.25,1.25,0,0,1,.07-.42,1.19,1.19,0,0,0,.07-.4c0-.13,0-.26.06-.4s.05-.27.08-.4a.43.43,0,0,0,0-.17,1,1,0,0,1,0-.17,1,1,0,0,1,.07-.36,2,2,0,0,0,.07-.29.89.89,0,0,0,0-.29,1.43,1.43,0,0,1,0-.2,1.69,1.69,0,0,1,0-.18,3.6,3.6,0,0,0,.1-.58,5.55,5.55,0,0,1,.07-.55l0-.43a1.69,1.69,0,0,1,.1-.41.29.29,0,0,0,0-.17.78.78,0,0,1,0-.19.9.9,0,0,1,0-.29l.1-.26a.43.43,0,0,1,.38-.26h.84Q63.7,101.87,63.7,102.23Z" transform="translate(-16.42 1.1)"/><path class="cls-3" d="M69.19,103.88a.56.56,0,0,0-.41.48l-.06.26a1.19,1.19,0,0,0,0,.29.62.62,0,0,0,0,.19.41.41,0,0,1,0,.34,1,1,0,0,0,0,.36,1.3,1.3,0,0,1,0,.29,1.34,1.34,0,0,0,0,.26v.29a1.11,1.11,0,0,0,0,.38.25.25,0,0,1,0,.18.75.75,0,0,0,0,.2,1.31,1.31,0,0,0,0,.43,4,4,0,0,1,0,.43.29.29,0,0,0,0,.14.2.2,0,0,1,0,.12.29.29,0,0,0,0,.22.4.4,0,0,1,0,.22.84.84,0,0,0,0,.14.2.2,0,0,1,0,.14.35.35,0,0,0,0,.29.84.84,0,0,1,0,.34.88.88,0,0,0,0,.25c0,.09,0,.17,0,.25a.53.53,0,0,0,.34.53l.13.06.11.06a.63.63,0,0,0,.24,0l.24,0h.07a.09.09,0,0,1,.07,0,.82.82,0,0,0,.55,0,.38.38,0,0,1,.46.17,1.07,1.07,0,0,1,.07.18.32.32,0,0,1,0,.2.06.06,0,0,0,0,.1.41.41,0,0,1,0,.2c0,.06,0,.12,0,.2a1.08,1.08,0,0,0,0,.35,1.79,1.79,0,0,1,0,.35.28.28,0,0,1,0,.19.31.31,0,0,1-.46.22.84.84,0,0,0-.38,0h-.24a.5.5,0,0,0-.24,0,.86.86,0,0,1-.23.06.91.91,0,0,0-.23.06.81.81,0,0,0-.5.65.25.25,0,0,0,0,.08.28.28,0,0,1,0,.08,1.24,1.24,0,0,1,0,.3,1.22,1.22,0,0,0,0,.3.21.21,0,0,1,0,.1l0,.19a.35.35,0,0,0,0,.22.21.21,0,0,1,0,.1.4.4,0,0,0,0,.34.25.25,0,0,1,0,.22.47.47,0,0,0,0,.34.15.15,0,0,1,0,.11.15.15,0,0,0,0,.11.32.32,0,0,0,.13.17l.2.1a.34.34,0,0,0,.19,0,.22.22,0,0,1,.24,0,.33.33,0,0,0,.24.07.42.42,0,0,1,.17,0,.42.42,0,0,0,.17,0,.21.21,0,0,1,.22,0,.94.94,0,0,0,.3,0l.3,0a.71.71,0,0,1,.23,0l.23.06s.07,0,.07,0l.1.14a.3.3,0,0,1,0,.17,2.49,2.49,0,0,1,0,.28.77.77,0,0,1,0,.3.68.68,0,0,0,0,.36.65.65,0,0,1-.19.58.37.37,0,0,1-.26.07h-.12a.13.13,0,0,0-.12,0,.14.14,0,0,1-.1,0h-.19a.72.72,0,0,0-.32,0,.34.34,0,0,1-.3,0,.35.35,0,0,0-.29,0l-.38,0a.16.16,0,0,1-.12,0,1.09,1.09,0,0,0-.46,0,.28.28,0,0,1-.19,0l-.19,0a.32.32,0,0,0-.14,0,.24.24,0,0,1-.17,0H68a.22.22,0,0,0-.16,0,.27.27,0,0,1-.29,0,.28.28,0,0,0-.16-.08l-.16,0a.59.59,0,0,1-.41-.43l0-.31a2.86,2.86,0,0,0-.07-.31v-.07a1,1,0,0,0,0-.43,1.86,1.86,0,0,1,0-.41.7.7,0,0,0,0-.13.16.16,0,0,1,0-.11s0-.08,0-.1a.54.54,0,0,1-.06-.29c0-.1,0-.2,0-.31a1,1,0,0,0,0-.26v-.31a2.2,2.2,0,0,1,0-.31v-.12a.3.3,0,0,1,0-.24.38.38,0,0,0,0-.23,1.52,1.52,0,0,0-.07-.23.61.61,0,0,1,0-.23.45.45,0,0,1,.07-.23.67.67,0,0,0,0-.29l-.07-.41a.25.25,0,0,1,0-.08.27.27,0,0,0,0-.08.54.54,0,0,0,0-.25.54.54,0,0,1,0-.25l0,0c-.08-.08-.11-.15-.1-.22a1.59,1.59,0,0,1,.07-.22.84.84,0,0,0,0-.24,2.81,2.81,0,0,1,0-.35v-.49a.34.34,0,0,1,0-.29q0-.12,0-.25c0-.09,0-.17,0-.25a.38.38,0,0,1,0-.34.29.29,0,0,0,0-.19v-.17a1.2,1.2,0,0,0,0-.37,2.17,2.17,0,0,0-.06-.37.32.32,0,0,1,0-.23.33.33,0,0,0,0-.23.14.14,0,0,1,0-.1.63.63,0,0,0,0-.43v-.07a.94.94,0,0,0,0-.36l0-.34a.92.92,0,0,1,0-.44,1.07,1.07,0,0,0,0-.42c0-.08,0-.16,0-.25a1.06,1.06,0,0,1,0-.28v0a.52.52,0,0,1,0-.3,2,2,0,0,1,.07-.28.1.1,0,0,1,0-.06s0,0,0-.06a.67.67,0,0,1,0-.22.3.3,0,0,0-.08-.22.22.22,0,0,1,0-.17,1.49,1.49,0,0,0,.1-.29,1.58,1.58,0,0,0,0-.38v-.38a.72.72,0,0,1,0-.22,1.64,1.64,0,0,1,.16-.42,1.19,1.19,0,0,1,.28-.35,1.51,1.51,0,0,1,.35-.26.79.79,0,0,1,.44-.07.26.26,0,0,0,.19-.07.47.47,0,0,1,.36,0,.11.11,0,0,0,.12,0,1,1,0,0,1,.36,0,.31.31,0,0,0,.17,0l.17,0,.53-.07h0a.32.32,0,0,0,.19,0,.33.33,0,0,1,.19,0,.59.59,0,0,0,.38,0,.22.22,0,0,1,.24,0,.26.26,0,0,0,.24.07.36.36,0,0,1,.46.24.79.79,0,0,1,0,.19.33.33,0,0,0,0,.14,1.31,1.31,0,0,1,0,.29.79.79,0,0,1,0,.28.67.67,0,0,0,0,.25.36.36,0,0,1,0,.13l0,.13a.38.38,0,0,1-.43.29,1,1,0,0,0-.43.12l-.19,0a.38.38,0,0,1-.17,0,.41.41,0,0,0-.26,0,.51.51,0,0,1-.19,0,.14.14,0,0,0-.1,0,.21.21,0,0,1-.17.1l-.17,0a.38.38,0,0,0-.22,0A.16.16,0,0,1,69.19,103.88Z" transform="translate(-16.42 1.1)"/><path class="cls-3" d="M82.06,110.58A3.22,3.22,0,0,0,82,111c0,.15,0,.3,0,.44a.63.63,0,0,0,0,.2c0,.06,0,.12,0,.2a1.79,1.79,0,0,1,0,.29.5.5,0,0,1-.07.26.25.25,0,0,0,0,.24v.22a.81.81,0,0,1,0,.19v.46a.85.85,0,0,1,0,.24v.31a.64.64,0,0,1,0,.46.34.34,0,0,0,0,.29,1.83,1.83,0,0,1-.07.53.11.11,0,0,1,0,0,.1.1,0,0,0,0,0,1.22,1.22,0,0,1,0,.29.7.7,0,0,0,0,.29.7.7,0,0,1-.17.43.76.76,0,0,0-.11.19l-.08.22a.66.66,0,0,1-.17.31l-.28.29a1.44,1.44,0,0,0-.23.34s-.08.07-.1.07a.61.61,0,0,0-.2.13l-.18.16a1.09,1.09,0,0,1-.26.16l-.29.13h-.1l-.22.11a.29.29,0,0,1-.22,0,.29.29,0,0,0-.17,0,.29.29,0,0,1-.17,0l-.28,0-.25.07-.36,0h-.19l-.17,0h-.07a.83.83,0,0,0-.4,0,1.1,1.1,0,0,1-.4,0,1.42,1.42,0,0,0-.31,0,.87.87,0,0,1-.31,0,.66.66,0,0,1-.46-.34l-.08-.17a.36.36,0,0,1,0-.17.05.05,0,0,0,0,0,0,0,0,0,1,0,0,.42.42,0,0,1-.1-.28v-.3c0-.11,0-.22,0-.31a.93.93,0,0,0-.06-.26.89.89,0,0,1,0-.16.22.22,0,0,1,0-.16.16.16,0,0,0,0-.14.22.22,0,0,1,0-.14,1.61,1.61,0,0,0,0-.34c0-.11,0-.22,0-.34a.11.11,0,0,1,0-.12.42.42,0,0,0,0-.31,1.08,1.08,0,0,0,0-.23l0-.23a.31.31,0,0,1,0-.17.54.54,0,0,0,.1-.3,2.35,2.35,0,0,0,0-.32.7.7,0,0,1,0-.26.36.36,0,0,0,0-.38.27.27,0,0,1,0-.16.47.47,0,0,1,0-.16,1.62,1.62,0,0,0,0-.43,2.46,2.46,0,0,1,0-.43.74.74,0,0,0,0-.22.58.58,0,0,0,0-.24.35.35,0,0,1,0-.29.46.46,0,0,0,.07-.24,1.25,1.25,0,0,0,0-.24,1.77,1.77,0,0,0-.1-.6.25.25,0,0,1,0-.22.65.65,0,0,0,0-.41v0l0-1.66a.2.2,0,0,1,0-.1.58.58,0,0,0,0-.46.42.42,0,0,1,0-.2c0-.06,0-.12,0-.2a.3.3,0,0,0,0-.14,1.07,1.07,0,0,1,0-.17,2,2,0,0,0,0-.3.63.63,0,0,1,0-.3.16.16,0,0,0,0-.12.19.19,0,0,1,0-.14.9.9,0,0,0,0-.14.59.59,0,0,0,0-.29,1.68,1.68,0,0,1,0-.29v-.36a2.82,2.82,0,0,1,0-.36,1.8,1.8,0,0,0,0-.22,1.6,1.6,0,0,1,0-.22c0-.1,0-.19,0-.28a.69.69,0,0,0,0-.28.35.35,0,0,1,0-.22l0-.19c0-.06,0-.12,0-.17a.9.9,0,0,0,0-.14.56.56,0,0,1,.07-.29l.08-.13a.65.65,0,0,0,.06-.13.3.3,0,0,1,.1-.18l.14-.13a0,0,0,0,1,0,0l.31-.11a1.36,1.36,0,0,1,.34-.08l.82,0a2.79,2.79,0,0,1,.44,0,1.63,1.63,0,0,0,.44,0,.16.16,0,0,1,.17,0,.82.82,0,0,0,.31.08,1.3,1.3,0,0,1,.31.06.3.3,0,0,0,.18,0,.31.31,0,0,1,.18,0,1.84,1.84,0,0,1,.31.12l.29.14a.7.7,0,0,1,.2.12.86.86,0,0,0,.18.12l0,0a.53.53,0,0,1,.41.34.06.06,0,0,0,.07.07.28.28,0,0,1,.17.17l0,0a.44.44,0,0,1,.22.25.82.82,0,0,0,.14.28.29.29,0,0,1,0,.22.29.29,0,0,0,.1.22.37.37,0,0,1,.06.14s0,.1,0,.17a1.25,1.25,0,0,1,0,.24.27.27,0,0,0,.12.22.25.25,0,0,1,0,.14.41.41,0,0,0,0,.2,1.17,1.17,0,0,1,0,.18,1.08,1.08,0,0,0,.08.42.69.69,0,0,1,0,.42s0,.07,0,.12a.5.5,0,0,1,0,.22.94.94,0,0,0,0,.62,1.31,1.31,0,0,1,0,.29c0,.16,0,.32,0,.47a1.87,1.87,0,0,0,0,.47.77.77,0,0,1,0,.18.42.42,0,0,1,0,.18s0,.05,0,.06a0,0,0,0,1,0,0,.66.66,0,0,1,0,.24v.24q0,.19,0,.4a2.05,2.05,0,0,0,0,.4l0,.14A.93.93,0,0,1,82.06,110.58Zm-2.11-2.09a.26.26,0,0,0,0-.12.85.85,0,0,1,0-.46.73.73,0,0,0,0-.36l0-.24a1.17,1.17,0,0,1,0-.18.31.31,0,0,0,0-.18.21.21,0,0,1,0-.17.6.6,0,0,0,0-.41.39.39,0,0,1,0-.17.39.39,0,0,1,0-.22.39.39,0,0,0,0-.22,1.43,1.43,0,0,1,0-.36,1,1,0,0,0-.07-.36l-.1-.37a1.38,1.38,0,0,0-.17-.37l-.18-.23a1.26,1.26,0,0,0-.2-.2,1.54,1.54,0,0,0-.34-.17.76.76,0,0,0-.38-.07,1,1,0,0,1-.36,0,.63.63,0,0,0-.19,0l-.17.07a.52.52,0,0,0-.23.23,1.11,1.11,0,0,0-.08.32v.26a1.31,1.31,0,0,1,0,.26,2.45,2.45,0,0,0,0,.25.53.53,0,0,0,0,.25c0,.06,0,.12,0,.17a.43.43,0,0,1,0,.17,2,2,0,0,0,0,.36,1.17,1.17,0,0,1,0,.26.49.49,0,0,0,0,.19,1.81,1.81,0,0,1,0,.22c0,.11,0,.22,0,.32a.69.69,0,0,1-.06.32v.12a.51.51,0,0,1,0,.26,4.35,4.35,0,0,1,0,.44,1.35,1.35,0,0,0,0,.44v.12a1.22,1.22,0,0,0-.06.29c0,.1,0,.19,0,.29v.36a1.48,1.48,0,0,0,0,.36.7.7,0,0,1,0,.41v.12a5.91,5.91,0,0,1,0,.74q0,.36,0,.74t0,.5v.5c0,.11,0,.22,0,.32a1.78,1.78,0,0,0,0,.35,4.73,4.73,0,0,1,0,.58q0,.29,0,.6a2,2,0,0,0,0,.36.71.71,0,0,1,0,.22,3.27,3.27,0,0,0,.14.79.45.45,0,0,0,.17.28.94.94,0,0,0,.29.13.48.48,0,0,0,.22,0l.22,0a.42.42,0,0,0,.26,0l.24-.13a.39.39,0,0,0,.18-.13l.13-.18a1,1,0,0,0,.29-.41l.07-.24a2.2,2.2,0,0,0,.17-.55c0-.19.06-.38.07-.58a2.1,2.1,0,0,0,0-.38,2.1,2.1,0,0,1,0-.38.53.53,0,0,0,0-.19.31.31,0,0,1,0-.19.48.48,0,0,0,0-.23c0-.07,0-.15,0-.23a1.19,1.19,0,0,1,0-.46,1.19,1.19,0,0,0,0-.23v-.23c0-.11,0-.22,0-.32a.92.92,0,0,1,0-.32.21.21,0,0,0,0-.22,1.27,1.27,0,0,1-.07-.25.43.43,0,0,1,0-.25.64.64,0,0,0,.07-.48c0-.08,0-.15,0-.22a.23.23,0,0,1,.08-.19s0-.06,0-.12a.55.55,0,0,1,0-.36Z" transform="translate(-16.42 1.1)"/><path class="cls-3" d="M88.37,103.88a.56.56,0,0,0-.41.48c0,.08,0,.17-.06.26a1.22,1.22,0,0,0,0,.29.64.64,0,0,0,0,.19.41.41,0,0,1,0,.34,1,1,0,0,0,0,.36,1.31,1.31,0,0,1,0,.29,1.38,1.38,0,0,0,0,.26v.29a1.11,1.11,0,0,0,0,.38.24.24,0,0,1,0,.18.77.77,0,0,0,0,.2,1.32,1.32,0,0,0,0,.43,4,4,0,0,1,0,.43.28.28,0,0,0,0,.14.2.2,0,0,1,0,.12.29.29,0,0,0,0,.22.39.39,0,0,1,0,.22.79.79,0,0,0,0,.14.2.2,0,0,1,0,.14.35.35,0,0,0,0,.29.83.83,0,0,1,0,.34.9.9,0,0,0,0,.25q0,.13,0,.25a.53.53,0,0,0,.34.53l.13.06.11.06a.64.64,0,0,0,.24,0l.24,0h.07s0,0,.07,0a.82.82,0,0,0,.55,0,.38.38,0,0,1,.46.17,1,1,0,0,1,.07.18.33.33,0,0,1,0,.2.06.06,0,0,0,0,.1.42.42,0,0,1,0,.2l0,.2a1.07,1.07,0,0,0,0,.35,1.72,1.72,0,0,1,0,.35.27.27,0,0,1,0,.19.47.47,0,0,1-.18.23.48.48,0,0,1-.28,0,.84.84,0,0,0-.38,0h-.24a.5.5,0,0,0-.24,0,.87.87,0,0,1-.23.06.9.9,0,0,0-.23.06.81.81,0,0,0-.5.65.24.24,0,0,0,0,.08.28.28,0,0,1,0,.08,1.22,1.22,0,0,1,0,.3,1.22,1.22,0,0,0,0,.3.21.21,0,0,1,0,.1l0,.19a.35.35,0,0,0,0,.22.21.21,0,0,1,0,.1.4.4,0,0,0,0,.34.25.25,0,0,1,0,.22.47.47,0,0,0,0,.34.15.15,0,0,1,0,.11.15.15,0,0,0,0,.11.32.32,0,0,0,.13.17l.2.1a.34.34,0,0,0,.19,0,.22.22,0,0,1,.24,0,.33.33,0,0,0,.24.07.42.42,0,0,1,.17,0,.42.42,0,0,0,.17,0,.21.21,0,0,1,.22,0,.93.93,0,0,0,.3,0l.3,0a.7.7,0,0,1,.23,0l.23.06s.07,0,.07,0l.1.14a.29.29,0,0,1,0,.17,2.61,2.61,0,0,1,0,.28.76.76,0,0,1,0,.3.68.68,0,0,0,0,.36.64.64,0,0,1-.19.58.37.37,0,0,1-.26.07h-.12a.13.13,0,0,0-.12,0,.13.13,0,0,1-.1,0h-.19a.72.72,0,0,0-.32,0,.34.34,0,0,1-.3,0,.35.35,0,0,0-.29,0l-.38,0a.16.16,0,0,1-.12,0,1.09,1.09,0,0,0-.46,0,.28.28,0,0,1-.19,0l-.19,0a.32.32,0,0,0-.14,0,.24.24,0,0,1-.17,0h-.16a.22.22,0,0,0-.16,0,.27.27,0,0,1-.29,0,.27.27,0,0,0-.16-.08l-.16,0a.58.58,0,0,1-.41-.43l0-.31a3,3,0,0,0-.07-.31v-.07a1,1,0,0,0,0-.43,1.86,1.86,0,0,1,0-.41.7.7,0,0,0,0-.13.16.16,0,0,1,0-.11s0-.08,0-.1a.53.53,0,0,1-.06-.29c0-.1,0-.2,0-.31a1,1,0,0,0,0-.26v-.31a2.13,2.13,0,0,1,0-.31v-.12a.3.3,0,0,1,0-.24.39.39,0,0,0,0-.23,1.52,1.52,0,0,0-.07-.23.59.59,0,0,1,0-.23.45.45,0,0,1,.07-.23.66.66,0,0,0,0-.29l-.07-.41a.24.24,0,0,1,0-.08.27.27,0,0,0,0-.08.54.54,0,0,0,0-.25.53.53,0,0,1,0-.25l0,0c-.08-.08-.11-.15-.1-.22a1.6,1.6,0,0,1,.07-.22.87.87,0,0,0,0-.24,2.9,2.9,0,0,1,0-.35v-.49a.34.34,0,0,1,0-.29q0-.12,0-.25c0-.09,0-.17,0-.25a.38.38,0,0,1,0-.34.29.29,0,0,0,0-.19v-.17a1.23,1.23,0,0,0,0-.37,2.17,2.17,0,0,0-.06-.37.32.32,0,0,1,0-.23.33.33,0,0,0,0-.23.14.14,0,0,1,0-.1.63.63,0,0,0,0-.43v-.07a.94.94,0,0,0,0-.36l0-.34a.92.92,0,0,1,0-.44,1.06,1.06,0,0,0,0-.42q0-.12,0-.25a1,1,0,0,1,0-.28v0a.52.52,0,0,1,0-.3,1.91,1.91,0,0,1,.07-.28.09.09,0,0,1,0-.06s0,0,0-.06a.69.69,0,0,1,0-.22.3.3,0,0,0-.08-.22.21.21,0,0,1,0-.17,1.53,1.53,0,0,0,.1-.29,1.61,1.61,0,0,0,0-.38v-.38a.71.71,0,0,1,0-.22,1.65,1.65,0,0,1,.16-.42,1.2,1.2,0,0,1,.28-.35,1.49,1.49,0,0,1,.35-.26.79.79,0,0,1,.44-.07.26.26,0,0,0,.19-.07.47.47,0,0,1,.36,0,.11.11,0,0,0,.12,0,1,1,0,0,1,.36,0,.31.31,0,0,0,.17,0l.17,0,.53-.07h0a.32.32,0,0,0,.19,0,.33.33,0,0,1,.19,0,.59.59,0,0,0,.38,0,.22.22,0,0,1,.24,0,.26.26,0,0,0,.24.07.36.36,0,0,1,.46.24.77.77,0,0,1,0,.19.32.32,0,0,0,0,.14,1.31,1.31,0,0,1,0,.29.81.81,0,0,1,0,.28.69.69,0,0,0,0,.25.36.36,0,0,1,0,.13l0,.13a.38.38,0,0,1-.43.29,1,1,0,0,0-.43.12l-.19,0a.38.38,0,0,1-.17,0,.41.41,0,0,0-.26,0,.51.51,0,0,1-.19,0,.14.14,0,0,0-.1,0,.21.21,0,0,1-.17.1l-.17,0a.37.37,0,0,0-.22,0A.16.16,0,0,1,88.37,103.88Z" transform="translate(-16.42 1.1)"/><path class="cls-3" d="M102.15,106.14l0,.58a2.35,2.35,0,0,0,0,.35,2.06,2.06,0,0,1,0,.32.89.89,0,0,1,0,.29,2.59,2.59,0,0,0,0,.94.74.74,0,0,1,0,.22,1.53,1.53,0,0,0,0,.37v.37c0,.16,0,.32,0,.47a3.16,3.16,0,0,1,0,.47q0,.14,0,.28c0,.09,0,.18,0,.28a.3.3,0,0,0,0,.14.77.77,0,0,1,0,.12v.22a.58.58,0,0,1,0,.22.16.16,0,0,0,0,.17.65.65,0,0,1,.1.32,1.17,1.17,0,0,1,0,.32,2.1,2.1,0,0,0-.07.55,3.07,3.07,0,0,0,0,.55.75.75,0,0,1,0,.26.78.78,0,0,0,0,.24,2.21,2.21,0,0,1,0,.4,1.31,1.31,0,0,0,0,.4.17.17,0,0,0,0,.07.17.17,0,0,1,0,.07.35.35,0,0,1,0,.26.67.67,0,0,0,0,.29.78.78,0,0,1,0,.38,1.12,1.12,0,0,0,0,.32l0,.3a.68.68,0,0,1,0,.46,1.46,1.46,0,0,0,0,.31v.77a.33.33,0,0,1-.34.34l-.16,0h-.16l-.2,0H101a.26.26,0,0,1-.19-.07l-.12-.1a.4.4,0,0,1-.17-.17,1.19,1.19,0,0,0-.17-.37,1.82,1.82,0,0,1-.19-.37,1,1,0,0,1-.08-.16.49.49,0,0,0-.11-.16s0,0,0,0,0,0,0-.07a1.8,1.8,0,0,0-.29-.82l-.11-.19a.63.63,0,0,1-.08-.22,1.86,1.86,0,0,0-.1-.2.4.4,0,0,1,0-.2.06.06,0,0,0,0-.06.11.11,0,0,1-.06-.06.22.22,0,0,1-.12-.19,1.44,1.44,0,0,0-.13-.49c-.07-.15-.15-.3-.23-.44l-.1-.12a.37.37,0,0,1,0-.14.42.42,0,0,0,0-.28l-.14-.25a1.73,1.73,0,0,1-.08-.19l-.08-.19a.56.56,0,0,0-.12-.24.36.36,0,0,1-.1-.26.57.57,0,0,0-.1-.36,1.12,1.12,0,0,1-.16-.38,1.46,1.46,0,0,0-.13-.38,3.2,3.2,0,0,1-.26-.65,3.3,3.3,0,0,0-.26-.65,1.35,1.35,0,0,0-.11-.22,1.17,1.17,0,0,0-.16-.19c-.08,0-.14,0-.17,0l0,.17a.21.21,0,0,0,0,.17.82.82,0,0,1,0,.19v.19a2.89,2.89,0,0,0,0,.46,1.81,1.81,0,0,1,0,.46.18.18,0,0,0,0,.12,8.05,8.05,0,0,1,.07,1,.1.1,0,0,1,0,.07.73.73,0,0,0-.08.38,2.09,2.09,0,0,0,.06.38,1.39,1.39,0,0,1,0,.26V114a.23.23,0,0,1-.07.17v0a1.08,1.08,0,0,1,0,.26.42.42,0,0,0,0,.26c0,.08,0,.16,0,.23a.76.76,0,0,1,0,.23.67.67,0,0,0,0,.29.66.66,0,0,1,0,.55,1.66,1.66,0,0,0,0,.19.51.51,0,0,0,0,.19.32.32,0,0,1,0,.24,2.28,2.28,0,0,0,0,.74.55.55,0,0,1,0,.26,1.21,1.21,0,0,0-.06.29c0,.1,0,.19,0,.29a.58.58,0,0,1-.6.6.31.31,0,0,0-.17,0,.32.32,0,0,1-.14,0,.9.9,0,0,0-.29,0l-.29,0a.43.43,0,0,1-.2,0,.33.33,0,0,1-.11-.18.46.46,0,0,0-.14-.26c-.06,0-.08-.1,0-.19l0-.23a1.07,1.07,0,0,0,0-.23v-.38a3.16,3.16,0,0,0,0-.38c0-.11,0-.22,0-.32a.9.9,0,0,1,0-.32.79.79,0,0,0,0-.43.37.37,0,0,1,0-.26.75.75,0,0,0,0-.22v-.29a1.78,1.78,0,0,1,0-.29,1.73,1.73,0,0,0,0-.65.7.7,0,0,1,0-.26.41.41,0,0,1,.1-.26.16.16,0,0,0,0-.17.7.7,0,0,1,0-.41.47.47,0,0,0,0-.34,1.25,1.25,0,0,1,0-.55.31.31,0,0,0,0-.19.4.4,0,0,1,0-.36,2.55,2.55,0,0,0,.07-.34.62.62,0,0,0,0-.34.29.29,0,0,1,0-.14.89.89,0,0,0,0-.14,2.49,2.49,0,0,0,0-.67.15.15,0,0,0,0-.08l0-.08c0-.11,0-.19,0-.24a.61.61,0,0,0,0-.26,1,1,0,0,0,0-.26.57.57,0,0,1,0-.26.23.23,0,0,0,0-.14l0-.12a.72.72,0,0,1,0-.31,1.14,1.14,0,0,0,0-.53.17.17,0,0,1,0-.14,1.11,1.11,0,0,0,0-.28,2.5,2.5,0,0,1,0-.25.75.75,0,0,1,0-.23c0-.07,0-.15,0-.23a1,1,0,0,0,0-.5.72.72,0,0,1,0-.58,1.68,1.68,0,0,0,0-.31v-.28a.68.68,0,0,1,0-.25v-.07a.27.27,0,0,1,0-.31v0a.63.63,0,0,1,0-.32.9.9,0,0,0,0-.32q0-.14,0-.28c0-.09,0-.18,0-.28a1.06,1.06,0,0,1,0-.32,2.16,2.16,0,0,0,0-.32.14.14,0,0,0,0-.1.25.25,0,0,1,0-.22l.1-.19a.38.38,0,0,1,.24-.16h1a.19.19,0,0,1,.19.14,1.1,1.1,0,0,0,.14.31,2.93,2.93,0,0,1,.17.29l0,.14a.55.55,0,0,1,0,.17.57.57,0,0,0,.14.38.16.16,0,0,1,0,.12c0,.18.07.34.11.49a1.45,1.45,0,0,0,.2.44.07.07,0,0,1,0,0,.29.29,0,0,0,0,.23.62.62,0,0,1,.1.23,1.11,1.11,0,0,0,.08.3c0,.09.08.18.11.28a.55.55,0,0,1,.07.29,1.4,1.4,0,0,0,.11.41c.06.13.11.26.16.38a.26.26,0,0,1,.07.19.2.2,0,0,1,0,.08.13.13,0,0,0,0,.08s0,.06,0,.07a.33.33,0,0,0,0,.25l.14.23a.11.11,0,0,1,0,.12.55.55,0,0,0,0,.31,1.81,1.81,0,0,1,.07.31,1,1,0,0,0,.1.31.33.33,0,0,1,.07.11.3.3,0,0,0,.07.11.54.54,0,0,1,.13.2l.08.23a1.51,1.51,0,0,1,.07.23,1.53,1.53,0,0,0,.07.23.9.9,0,0,1,.16.36,1.14,1.14,0,0,0,.13.36c.06.13.12.26.18.4s.11.28.16.42l.08.14a.84.84,0,0,1,.06.17.92.92,0,0,0,.26.41c.06.1.14.08.22,0a.44.44,0,0,0,0-.24c0-.1,0-.19,0-.29s0-.19,0-.29a3,3,0,0,1,0-.53,3,3,0,0,0,0-.53.67.67,0,0,0,0-.18.33.33,0,0,1,0-.18V109a1.6,1.6,0,0,0,0-.62,1.53,1.53,0,0,1,0-.47c0-.15,0-.3,0-.44v-.23a1.2,1.2,0,0,0,0-.23,1.68,1.68,0,0,1,0-.31,1.3,1.3,0,0,0,0-.29.28.28,0,0,0,0-.08.05.05,0,0,1,0-.06.47.47,0,0,0,0-.29l0-.29v-.43a3.17,3.17,0,0,1,0-.41,3.25,3.25,0,0,0,0-.55,7.21,7.21,0,0,1-.06-.73q0-.37,0-.73c0-.13,0-.25,0-.36s0-.23,0-.36.11-.31.34-.31a.83.83,0,0,1,.24,0l.24,0,.26,0a2.05,2.05,0,0,1,.36,0l.26,0a.3.3,0,0,1,.24.31v.3a1.86,1.86,0,0,0,0,.3,4.59,4.59,0,0,1,0,.47,2.43,2.43,0,0,0,0,.49,1.49,1.49,0,0,1,0,.6v.07a1.58,1.58,0,0,1,0,.52,1.61,1.61,0,0,0,0,.52.8.8,0,0,1,0,.36A1.69,1.69,0,0,0,102.15,106.14Z" transform="translate(-16.42 1.1)"/><text x="-16.42" y="1.1"></text></svg>