<?xml version="1.0" encoding="UTF-8"?>
<svg width="245px" height="70px" viewBox="0 0 245 70" version="1.1" xmlns="http://www.w3.org/2000/svg" xmlns:xlink="http://www.w3.org/1999/xlink">
    <!-- Generator: Sketch 49.1 (51147) - http://www.bohemiancoding.com/sketch -->
    <title>Resurs 1</title>
    <desc>Created with Sketch.</desc>
    <defs></defs>
    <g id="Page-1" stroke="none" stroke-width="1" fill="none" fill-rule="evenodd">
        <g id="Start3" transform="translate(-23.000000, -20.000000)" fill-rule="nonzero">
            <g id="Resurs-1" transform="translate(23.000000, 20.000000)">
                <circle id="Oval" fill="#FFFFFF" cx="34.68" cy="34.68" r="34.68"></circle>
                <path d="M96.62,33.36 L96.62,28.65 L85.15,16.82 L85.15,16.56 L86.15,16.56 L97.63,28.44 L97.63,33.36 L96.62,33.36 Z M85.15,33.36 L85.15,17.85 L86.15,18.85 L86.15,33.36 L85.15,33.36 Z M96.62,16.56 L97.62,16.56 L97.62,27.38 L96.62,26.38 L96.62,16.56 Z" id="Shape" fill="#FFFFFF"></path>
                <polygon id="Shape" fill="#6DA4BA" points="48.98 56.53 48.98 44.22 18.95 13.25 18.95 12.56 21.59 12.56 51.62 43.65 51.62 56.53"></polygon>
                <polygon id="Shape" fill="#4A9562" points="18.95 56.53 18.95 15.95 21.59 18.65 21.59 56.53"></polygon>
                <polygon id="Shape" fill="#4A9562" points="48.98 12.56 51.62 12.56 51.62 40.89 48.98 38.19"></polygon>
                <path d="M104.3,27.79 L111.45,27.79 L111.79,28.58 L104,28.58 L102,33.36 L101,33.36 L107.38,17.73 L107.89,19.01 L104.3,27.79 Z M114.5,33.36 L107.76,16.77 L107.85,16.56 L108.69,16.56 L115.56,33.36 L114.5,33.36 Z" id="Shape" fill="#FFFFFF"></path>
                <path d="M115.17,16.56 L128.61,16.56 L128.61,17.35 L115.17,17.35 L115.17,16.56 Z M121.39,33.36 L121.39,18.07 L122.39,18.07 L122.39,33.36 L121.39,33.36 Z" id="Shape" fill="#FFFFFF"></path>
                <path d="M137.59,32.73 L137.59,33.57 C132.4,33.43 131.8,29.88 131.8,25.94 L131.8,16.56 L132.8,16.56 L132.8,25.94 C132.81,29.47 133.27,32.57 137.59,32.73 Z M138.31,33.57 L138.31,32.73 C142.58,32.57 143.04,29.47 143.04,25.92 L143.04,16.56 L144.04,16.56 L144.04,25.87 C144,29.85 143.47,33.43 138.31,33.57 Z" id="Shape" fill="#FFFFFF"></path>
                <path d="M150.07,33.36 L149.07,33.36 L149.07,16.56 L150.07,16.56 L150.07,33.36 Z M150.79,17.36 L150.79,16.57 L153.09,16.57 C156.26,16.57 159.96,17.65 159.96,22.06 C160.129011,24.6212012 158.331233,26.8943527 155.8,27.32 L159.43,33.37 L158.28,33.37 L154.72,27.49 C154.203474,27.5666774 153.682177,27.6067772 153.16,27.61 L150.79,27.61 L150.79,26.82 L153.19,26.82 C155.85,26.82 158.9,25.82 158.9,22.06 C158.9,18.3 155.9,17.36 153.16,17.36 L150.79,17.36 Z" id="Shape" fill="#FFFFFF"></path>
                <path d="M161.35,16.56 L174.79,16.56 L174.79,17.35 L161.35,17.35 L161.35,16.56 Z M167.56,33.36 L167.56,18.07 L168.56,18.07 L168.56,33.36 L167.56,33.36 Z" id="Shape" fill="#FFFFFF"></path>
                <path d="M183.76,32.73 L183.76,33.57 C178.58,33.43 177.98,29.88 177.98,25.94 L177.98,16.56 L178.98,16.56 L178.98,25.94 C179,29.47 179.44,32.57 183.76,32.73 Z M184.48,33.57 L184.48,32.73 C188.76,32.57 189.21,29.47 189.21,25.92 L189.21,16.56 L190.21,16.56 L190.21,25.87 C190.22,29.85 189.64,33.43 184.48,33.57 Z" id="Shape" fill="#FFFFFF"></path>
                <path d="M196.24,33.36 L195.24,33.36 L195.24,16.56 L196.24,16.56 L196.24,33.36 Z M196.96,17.36 L196.96,16.57 L199.27,16.57 C202.43,16.57 206.13,17.65 206.13,22.06 C206.29566,24.6077853 204.515163,26.8711293 202,27.31 L205.62,33.36 L204.47,33.36 L200.92,27.48 C200.403474,27.5566774 199.882177,27.5967772 199.36,27.6 L197,27.6 L197,26.81 L199.4,26.81 C202.07,26.81 205.11,25.81 205.11,22.05 C205.11,18.29 202.11,17.35 199.38,17.35 L196.96,17.36 Z" id="Shape" fill="#FFFFFF"></path>
                <polygon id="Shape" fill="#FFFFFF" points="210.21 16.56 211.21 16.56 211.21 33.36 210.21 33.36"></polygon>
                <path d="M220.07,33.6 C218.365105,33.5553769 216.709125,33.0207416 215.3,32.06 L215.3,31 C216.634511,32.1265002 218.323601,32.7461873 220.07,32.75 L220.07,33.6 Z M220.79,33.6 L220.79,32.74 C223.58,32.52 224.59,30.74 224.59,29 C224.59,27.05 223.05,26.38 220.31,25 C217.94,23.77 215.75,22.41 216.11,19.67 C216.4,17.49 217.99,16.5 220.11,16.38 L220.11,17.25 C218.637303,17.1834919 217.367015,18.2741876 217.21,19.74 C216.87,22.17 219.21,23.17 220.98,24.06 C223.91,25.53 225.68,26.39 225.68,28.96 C225.68,31.53 223.89,33.38 220.79,33.57 L220.79,33.6 Z M220.79,17.21 L220.79,16.35 C222.170231,16.4038295 223.509065,16.8362692 224.66,17.6 L224.66,18.6 C223.559692,17.7167323 222.200459,17.2179956 220.79,17.18 L220.79,17.21 Z" id="Shape" fill="#FFFFFF"></path>
                <path d="M229.72,16.56 L230.72,16.56 L237.08,23.11 L243.44,16.56 L244.44,16.56 L244.44,17 L237.29,24.3 L236.83,24.3 L229.72,17 L229.72,16.56 Z M230.72,33.36 L229.72,33.36 L229.72,18 L230.72,19 L230.72,33.36 Z M244.45,33.36 L243.45,33.36 L243.45,19.05 L244.45,18.05 L244.45,33.36 Z" id="Shape" fill="#FFFFFF"></path>
                <path d="M85.15,40.56 L86.15,40.56 L86.15,57.36 L85.15,57.36 L85.15,40.56 Z M95.01,40.56 L95.01,41.35 L86.87,41.35 L86.87,40.56 L95.01,40.56 Z M94.53,50.56 L94.53,51.35 L86.87,51.35 L86.87,50.56 L94.53,50.56 Z" id="Shape" fill="#FFFFFF"></path>
                <path d="M106.15,56.73 L106.15,57.6 C103.918274,57.5347357 101.804347,56.5836827 100.275141,54.9569086 C98.7459362,53.3301345 97.9272812,51.161496 98,48.93 C97.9382306,46.7004897 98.7677903,44.5383362 100.304989,42.9223067 C101.842188,41.3062772 103.960188,40.3697136 106.19,40.32 L106.19,41.18 C102.052216,41.369253 98.8418559,44.8609101 99,49 C98.8753408,53.0958021 102.056921,56.535469 106.15,56.73 Z M104.66,35.83 C104.884436,35.8244558 105.101329,35.911174 105.260078,36.0699224 C105.418826,36.2286707 105.505544,36.4455644 105.5,36.67 C105.505853,36.8927395 105.418547,37.1078284 105.259105,37.2634739 C105.099664,37.4191193 104.882534,37.5012177 104.66,37.49 C104.44002,37.4985251 104.226459,37.4148733 104.070793,37.2592069 C103.915127,37.1035406 103.831475,36.8899803 103.84,36.67 C103.828782,36.4474661 103.910881,36.2303363 104.066526,36.0708946 C104.222172,35.9114529 104.43726,35.824147 104.66,35.83 Z M106.87,41.21 L106.87,40.32 C109.079654,40.3852168 111.172257,41.3281682 112.684875,42.9402513 C114.197493,44.5523344 115.005447,46.7006714 114.93,48.91 C115.081972,53.521977 111.481007,57.391004 106.87,57.57 L106.87,56.73 C108.832679,56.6241226 110.672882,55.742802 111.98568,54.2799696 C113.298479,52.8171373 113.976303,50.8926557 113.87,48.93 C113.976009,46.9753516 113.295778,45.0595062 111.980878,43.6093592 C110.665978,42.1592123 108.825664,41.2952559 106.87,41.21 Z M108.21,35.83 C108.434436,35.8244558 108.651329,35.911174 108.810078,36.0699224 C108.968826,36.2286707 109.055544,36.4455644 109.05,36.67 C109.055853,36.8927395 108.968547,37.1078284 108.809105,37.2634739 C108.649664,37.4191193 108.432534,37.5012177 108.21,37.49 C107.990853,37.498733 107.778154,37.4147999 107.624025,37.2587679 C107.469896,37.1027358 107.388579,36.8890237 107.4,36.67 C107.388927,36.4492369 107.469688,36.2337307 107.62312,36.0746159 C107.776552,35.915501 107.98898,35.8269595 108.21,35.83 Z" id="Shape" fill="#FFFFFF"></path>
                <path d="M120.45,57.36 L119.45,57.36 L119.45,40.56 L120.45,40.56 L120.45,57.36 Z M121.17,41.36 L121.17,40.57 L123.47,40.57 C126.64,40.57 130.34,41.65 130.34,46.06 C130.509658,48.6179548 128.717223,50.8898124 126.19,51.32 L129.81,57.32 L128.66,57.32 L125.11,51.44 C124.59343,51.5162843 124.07216,51.556382 123.55,51.56 L121.17,51.56 L121.17,50.77 L123.57,50.77 C126.23,50.77 129.28,49.77 129.28,46.01 C129.28,42.25 126.28,41.31 123.55,41.31 L121.17,41.36 Z" id="Shape" fill="#FFFFFF"></path>
                <path d="M134.42,40.56 L135.42,40.56 L135.42,57.36 L134.42,57.36 L134.42,40.56 Z M144.28,40.56 L144.28,41.35 L136.15,41.35 L136.15,40.56 L144.28,40.56 Z M143.8,49.94 L143.8,50.73 L136.15,50.73 L136.15,49.94 L143.8,49.94 Z M144.28,56.57 L144.28,57.36 L136.15,57.36 L136.15,56.57 L144.28,56.57 Z" id="Shape" fill="#FFFFFF"></path>
                <path d="M146.13,40.56 L159.57,40.56 L159.57,41.35 L146.13,41.35 L146.13,40.56 Z M152.35,57.36 L152.35,42.07 L153.35,42.07 L153.35,57.36 L152.35,57.36 Z" id="Shape" fill="#FFFFFF"></path>
                <path d="M162.5,51.79 L169.65,51.79 L169.99,52.58 L162.19,52.58 L160.24,57.36 L159.19,57.36 L165.57,41.73 L166.07,43.01 L162.5,51.79 Z M172.7,57.36 L166,40.77 L166.1,40.56 L166.94,40.56 L173.8,57.36 L172.7,57.36 Z" id="Shape" fill="#FFFFFF"></path>
                <path d="M183.91,56.69 L183.91,57.55 C179.417079,57.286879 175.947886,53.4986795 176.08,49 C175.925742,44.4860077 179.401058,40.6733683 183.91,40.41 L183.91,41.27 C179.962994,41.648501 176.99484,45.0375456 177.14,49 C177.00133,52.9526894 179.971608,56.3266095 183.91,56.69 Z M184.63,41.18 L184.63,40.32 C186.477501,40.3240082 188.287777,40.8397465 189.86,41.81 L189.86,42.81 C188.346106,41.7103453 186.521109,41.1218626 184.65,41.13 L184.63,41.18 Z M184.63,57.6 L184.63,56.73 L184.79,56.73 C186.445816,56.7277708 188.079766,56.3517573 189.57,55.63 L189.57,49 L190.57,49 L190.57,56 C188.839304,57.1139436 186.817957,57.6914712 184.76,57.66 L184.63,57.6 Z" id="Shape" fill="#FFFFFF"></path>
                <path d="M195.3,40.56 L196.3,40.56 L196.3,57.36 L195.3,57.36 L195.3,40.56 Z M205.17,40.56 L205.17,41.35 L197,41.35 L197,40.56 L205.17,40.56 Z M204.69,49.94 L204.69,50.73 L197,50.73 L197,49.94 L204.69,49.94 Z M205.17,56.57 L205.17,57.36 L197,57.36 L197,56.57 L205.17,56.57 Z" id="Shape" fill="#FFFFFF"></path>
                <path d="M220.29,57.36 L220.29,52.65 L208.82,40.82 L208.82,40.56 L209.82,40.56 L221.3,52.44 L221.3,57.36 L220.29,57.36 Z M208.82,57.36 L208.82,41.85 L209.82,42.85 L209.82,57.36 L208.82,57.36 Z M220.29,40.56 L221.29,40.56 L221.29,51.38 L220.29,50.38 L220.29,40.56 Z" id="Shape" fill="#FFFFFF"></path>
            </g>
        </g>
    </g>
</svg>